<svg xmlns="http://www.w3.org/2000/svg" width="83.405" height="83.405" viewBox="0 0 83.405 83.405">
  <g id="Group_171" data-name="Group 171" transform="translate(-610.435 -1956.71)">
    <path id="Path_43" data-name="Path 43" d="M2130.519,68.575V19.85A11.965,11.965,0,0,0,2118.568,7.9h-50.013v0a8.458,8.458,0,0,0-8.369,8.448V29.626h12.071v5.353a14.478,14.478,0,0,0-7.243,25.069V80.329l7.243-4.829v2.851A11.965,11.965,0,0,0,2084.208,90.3h50.013v0a8.458,8.458,0,0,0,8.369-8.448V68.575Zm-65.505-52.227a3.621,3.621,0,0,1,7.243,0V24.8h-7.243ZM2074.67,39.6a9.657,9.657,0,1,1-9.657,9.657,9.668,9.668,0,0,1,9.657-9.657m-4.829,23.313a14.478,14.478,0,0,0,9.657,0v8.389l-4.828-3.219-4.829,3.219Zm7.243,15.433V75.5l7.242,4.829V60.048a14.478,14.478,0,0,0-7.242-25.069V16.348a8.4,8.4,0,0,0-.817-3.621h42.3a7.131,7.131,0,0,1,7.123,7.123v62a8.392,8.392,0,0,0,.817,3.621h-42.3a7.131,7.131,0,0,1-7.123-7.123m60.677,3.5a3.621,3.621,0,0,1-7.243,0V73.4h7.243Z" transform="translate(-1449.25 1949.312)" fill="#009ef0" stroke="#009ef0" stroke-width="1"/>
    <rect id="Rectangle_294" data-name="Rectangle 294" width="21.728" height="4.828" transform="translate(647.148 1971.695)" fill="#009ef0" stroke="#009ef0" stroke-width="1"/>
    <rect id="Rectangle_295" data-name="Rectangle 295" width="21.728" height="4.828" transform="translate(647.148 1984.088)" fill="#009ef0" stroke="#009ef0" stroke-width="1"/>
    <rect id="Rectangle_296" data-name="Rectangle 296" width="21.728" height="4.828" transform="translate(647.148 1996.159)" fill="#009ef0" stroke="#009ef0" stroke-width="1"/>
    <rect id="Rectangle_297" data-name="Rectangle 297" width="21.728" height="4.828" transform="translate(647.148 2008.23)" fill="#009ef0" stroke="#009ef0" stroke-width="1"/>
    <rect id="Rectangle_298" data-name="Rectangle 298" width="21.728" height="4.828" transform="translate(647.148 2020.301)" fill="#009ef0" stroke="#009ef0" stroke-width="1"/>
  </g>
</svg>
