<svg xmlns="http://www.w3.org/2000/svg" width="93.175" height="93.174" viewBox="0 0 93.175 93.174">
  <g id="Group_89" data-name="Group 89" transform="translate(0.5 0.5)">
    <path id="Path_18" data-name="Path 18" d="M782.4,40.623a14.3,14.3,0,1,0-14.3-14.3,14.32,14.32,0,0,0,14.3,14.3m7.946-15.892h3.179v3.178h-3.179ZM782.4,27.909a4.773,4.773,0,0,1-4.768-4.768V18.374h3.178V15.2h3.179v3.471a4.761,4.761,0,0,1,3.178,4.475h-3.178a1.591,1.591,0,0,0-1.589-1.589H780.81v1.589a1.591,1.591,0,0,0,1.589,1.589,4.773,4.773,0,0,1,4.767,4.768v4.767h-3.178v3.179H780.81V33.974a4.761,4.761,0,0,1-3.178-4.475h3.178a1.591,1.591,0,0,0,1.589,1.589h1.589V29.5a1.591,1.591,0,0,0-1.589-1.589m-11.125-3.178h3.179v3.178h-3.179Z" transform="translate(-768.096 -12.017)" fill="#009ef0" stroke="#009ef0" stroke-width="1"/>
    <path id="Path_19" data-name="Path 19" d="M897.574,133.43a20.66,20.66,0,1,0-20.66,20.66,20.684,20.684,0,0,0,20.66-20.66m-38.141,0a17.481,17.481,0,1,1,17.481,17.482,17.5,17.5,0,0,1-17.481-17.482" transform="translate(-834.005 -87.342)" fill="#009ef0" stroke="#009ef0" stroke-width="1"/>
    <path id="Path_20" data-name="Path 20" d="M769.606,282.478a5.153,5.153,0,1,0,7.288,7.287l15.971-15.972-7.288-7.288Z" transform="translate(-768.096 -202.278)" fill="#009ef0" stroke="#009ef0" stroke-width="1"/>
    <path id="Path_21" data-name="Path 21" d="M858.461,256.159l-2.748,2.748,2.521,2.52,2.748-2.748a24.212,24.212,0,0,1-2.52-2.52" transform="translate(-833.601 -194.543)" fill="#009ef0" stroke="#009ef0" stroke-width="1"/>
    <path id="Path_22" data-name="Path 22" d="M910.049,152.261a14.3,14.3,0,1,0-14.3,14.3,14.319,14.319,0,0,0,14.3-14.3m-6.357-1.589h3.179v3.178h-3.179ZM887.8,153.85h-3.178v-3.178H887.8Zm3.179,1.589h3.178a1.591,1.591,0,0,0,1.589,1.589h1.589v-1.589a1.591,1.591,0,0,0-1.589-1.589,4.773,4.773,0,0,1-4.768-4.767v-4.768h3.178v-3.178h3.178v3.471a4.761,4.761,0,0,1,3.179,4.475h-3.179a1.591,1.591,0,0,0-1.589-1.589h-1.589v1.589a1.591,1.591,0,0,0,1.589,1.589,4.773,4.773,0,0,1,4.768,4.768v4.768h-3.179v3.178h-3.178v-3.471a4.761,4.761,0,0,1-3.178-4.475" transform="translate(-852.837 -106.174)" fill="#009ef0" stroke="#009ef0" stroke-width="1"/>
    <path id="Path_23" data-name="Path 23" d="M996.556,213.521a23.9,23.9,0,0,1-11.515,15.893h24.709V213.521Z" transform="translate(-930.289 -162.666)" fill="#009ef0" stroke="#009ef0" stroke-width="1"/>
    <path id="Path_24" data-name="Path 24" d="M996.378,15.2h15.892a1.591,1.591,0,0,0,1.589-1.589V12.017H994.789v1.589a1.591,1.591,0,0,0,1.589,1.589" transform="translate(-937.577 -12.017)" fill="#009ef0" stroke="#009ef0" stroke-width="1"/>
    <path id="Path_25" data-name="Path 25" d="M931.818,344.23A4.773,4.773,0,0,0,936.586,349h41.32a4.773,4.773,0,0,0,4.768-4.768v-4.768H931.818Zm19.071-1.589H963.6v3.178H950.889Z" transform="translate(-890.499 -256.823)" fill="#009ef0" stroke="#009ef0" stroke-width="1"/>
    <path id="Path_26" data-name="Path 26" d="M977.906,12.017H969.96v1.589a4.774,4.774,0,0,1-4.768,4.768H949.3a4.773,4.773,0,0,1-4.768-4.768V12.017h-7.946a4.773,4.773,0,0,0-4.767,4.768V34.347c.528-.035,1.052-.081,1.589-.081s1.062.046,1.589.081V24.731a3.182,3.182,0,0,1,3.179-3.178h38.141a3.182,3.182,0,0,1,3.179,3.178v60.39a3.182,3.182,0,0,1-3.179,3.178H938.176A3.182,3.182,0,0,1,935,85.121V81.861c-.527.035-1.052.081-1.589.081s-1.062-.046-1.589-.081v9.616h50.855V16.785a4.774,4.774,0,0,0-4.768-4.768" transform="translate(-890.499 -12.017)" fill="#009ef0" stroke="#009ef0" stroke-width="1"/>
    <path id="Path_27" data-name="Path 27" d="M957.007,119.126v3.658h38.141V62.394H957.007V72.409a23.879,23.879,0,0,1,19.07,23.358c0,.537-.046,1.061-.081,1.589H991.97v22.249H960.185v-1.391a23.5,23.5,0,0,1-3.178.911m34.962-31.3H979.256V84.643H991.97Zm0-6.357H979.256V78.286H991.97ZM972.9,65.572h19.07v3.178H972.9Zm-9.536,3.179h-3.178V65.572h3.178Zm6.357,0h-3.178V65.572h3.178Zm3.178,3.178h19.07v3.178H972.9ZM979.256,91H991.97v3.178H979.256Z" transform="translate(-909.331 -49.68)" fill="#009ef0" stroke="#009ef0" stroke-width="1"/>
  </g>
</svg>
