<svg xmlns="http://www.w3.org/2000/svg" width="101.605" height="115.897" viewBox="0 0 101.605 115.897">
  <g id="_Group_" data-name="&lt;Group&gt;" transform="translate(1)">
    <path id="_Compound_Path_" data-name="&lt;Compound Path&gt;" d="M158.6,114.7a2.011,2.011,0,0,0-2.093-1.935H118.864l3.588-10.927a2.059,2.059,0,0,0-.491-2.085,2.025,2.025,0,0,0-2.063-.5L79.571,112.588c-.112.037-.218-.073-.32.179H61.092A2.011,2.011,0,0,0,59,114.7v64.556a2.081,2.081,0,0,0,2.092,2.019H93.486L90.4,192.147H84.868a2.022,2.022,0,0,0,0,4.045h47.868a2.022,2.022,0,0,0,0-4.045H127.2l-3.082-10.871h32.394a2.081,2.081,0,0,0,2.093-2.019V166.524h0v-4.045h0ZM117.354,104.34l-11.011,33.4-6.676-6.676a2.022,2.022,0,0,0-2.855-.006l-8.621,8.556L82.084,133.5l8.555-8.621a2.022,2.022,0,0,0-.006-2.855l-6.676-6.676ZM63.045,116.812H79.61l6.738,6.694-8.555,8.6a2.009,2.009,0,0,0,.006,2.844l8.957,8.952a2.024,2.024,0,0,0,2.855,0l8.621-8.556,7.573,7.573a2.022,2.022,0,0,0,1.9.537,1.967,1.967,0,0,0,1.453-1.291l8.375-25.355h7.591a2.313,2.313,0,0,0,.511.818l4.849,4.827a2.029,2.029,0,0,0,2.86-.016,1.972,1.972,0,0,0,0-2.819l-2.85-2.809H154.56v45.757H63.045ZM123,192.147H94.605l3.082-10.871h22.231Zm31.56-14.915H63.045V166.614H154.56Z" transform="translate(-59 -81.295)" fill="#009ef0" stroke="#009ef0" stroke-width="2"/>
    <path id="_Path_" data-name="&lt;Path&gt;" d="M322.249,62.979a2.016,2.016,0,0,0,1.43-.593l4.849-4.849a2.022,2.022,0,1,0-2.86-2.86l-4.849,4.849a2.022,2.022,0,0,0,1.43,3.453Z" transform="translate(-254.187 -47.619)" fill="#009ef0"/>
    <path id="_Path_2" data-name="&lt;Path&gt;" d="M221.349,62.386a2.022,2.022,0,1,0,2.86-2.86l-4.849-4.849a2.022,2.022,0,1,0-2.86,2.86Z" transform="translate(-176.241 -47.619)" fill="#009ef0"/>
    <path id="_Path_3" data-name="&lt;Path&gt;" d="M280.022,39.409a2.022,2.022,0,0,0,2.022-2.022V30.529a2.022,2.022,0,1,0-4.045,0v6.858A2.022,2.022,0,0,0,280.022,39.409Z" transform="translate(-222.636 -28.507)" fill="#009ef0"/>
    <path id="_Path_4" data-name="&lt;Path&gt;" d="M337.86,118.022a2.022,2.022,0,0,0,2.022,2.022h6.857a2.022,2.022,0,1,0,0-4.045h-6.857A2.022,2.022,0,0,0,337.86,118.022Z" transform="translate(-267.363 -93.881)" fill="#009ef0"/>
  </g>
</svg>
