<svg id="Group_130" data-name="Group 130" xmlns="http://www.w3.org/2000/svg" width="101.344" height="101.302" viewBox="0 0 101.344 101.302">
  <path id="Path_90" data-name="Path 90" d="M94.033,53.8a6.445,6.445,0,0,0,7.2-6.323V41.149a6.33,6.33,0,0,0-6.323-6.323H60.135a6.33,6.33,0,0,0-6.323,6.323v6.323a6.445,6.445,0,0,0,7.2,6.323c.879,3.714,3.026,10.307,7.767,14.228-4.741,3.92-6.888,10.513-7.767,14.228A6.689,6.689,0,0,0,55.591,84.2a39.517,39.517,0,1,1,26.4-54.406,3.162,3.162,0,1,0,5.777-2.573A45.9,45.9,0,1,0,53.811,91.033V94.9a6.33,6.33,0,0,0,6.323,6.323H94.913a6.33,6.33,0,0,0,6.323-6.323V88.574a6.445,6.445,0,0,0-7.2-6.323c-.879-3.714-3.026-10.307-7.767-14.228C91.008,64.1,93.155,57.51,94.033,53.8Zm-33.9-12.647H94.913l0,6.323H60.135ZM94.918,94.9H60.135V88.574H94.913Zm-7.4-12.647H67.536c1.07-3.73,3.21-8.6,6.813-10.356a4.307,4.307,0,0,0,0-7.743C70.744,62.4,68.605,57.523,67.534,53.8H87.512c-1.07,3.729-3.208,8.6-6.813,10.356a4.307,4.307,0,0,0,0,7.743c3.606,1.756,5.744,6.629,6.815,10.356Z" transform="translate(0.107 0.08)" fill="#009ef0"/>
  <path id="Path_91" data-name="Path 91" d="M38.551,14.162a3.162,3.162,0,1,0-6.323,0V36.294H21.162a3.162,3.162,0,1,0,0,6.323H35.389a3.162,3.162,0,0,0,3.162-3.162Z" transform="translate(10.625 6.517)" fill="#009ef0"/>
  <circle id="Ellipse_105" data-name="Ellipse 105" cx="3.162" cy="3.162" r="3.162" transform="translate(12.817 42.81)" fill="#009ef0"/>
  <circle id="Ellipse_106" data-name="Ellipse 106" cx="3.162" cy="3.162" r="3.162" transform="translate(42.853 72.846)" fill="#009ef0"/>
</svg>
