<svg xmlns="http://www.w3.org/2000/svg" width="86.062" height="72.396" viewBox="0 0 86.062 72.396">
  <g id="Group_172" data-name="Group 172" transform="translate(-1041.505 -1967.718)">
    <path id="Path_44" data-name="Path 44" d="M2506.38,35.5l1.057-1.085a7.8,7.8,0,0,0,1-1.026,10.391,10.391,0,0,0,1.145-1.162,6.171,6.171,0,0,0,.96-.973,10.686,10.686,0,0,0,1.157-1.172,6.237,6.237,0,0,0,.949-.962,10.3,10.3,0,0,0,1.172-1.176,6.039,6.039,0,0,0,.948-.951,10.853,10.853,0,0,0,1.176-1.179,6.274,6.274,0,0,0,.945-.948l1.179-1.184a6.112,6.112,0,0,0,.939-.944l1.186-1.184a5.845,5.845,0,0,0,.913-.912,10.639,10.639,0,0,0,1.214-1.21,5.984,5.984,0,0,0,.946-.944,10.56,10.56,0,0,0,1.181-1.178,6.441,6.441,0,0,0,.95-.946,10.357,10.357,0,0,0,1.177-1.176,5.9,5.9,0,0,0,.95-.949,9.9,9.9,0,0,0,1.18-1.165,6.227,6.227,0,0,0,.964-.953l1.171-1.151a6.313,6.313,0,0,0,.989-.96l1.134-1.066,1.166-.964a1.749,1.749,0,0,1,.936-.043l.23.038a2.794,2.794,0,0,1,.727.5c.388.372.792.727,1.189,1.09a1.149,1.149,0,0,0,.445.426,20.261,20.261,0,0,0,1.669,1.635,2.607,2.607,0,0,0,.639.625,14.932,14.932,0,0,0,1.495,1.477,1.651,1.651,0,0,0,.525.524,17.311,17.311,0,0,0,1.6,1.6,1.667,1.667,0,0,0,.526.527,16.762,16.762,0,0,0,1.6,1.6,2.557,2.557,0,0,0,.633.645A14.449,14.449,0,0,0,2547.707,20a3.731,3.731,0,0,0,.754.754,13.267,13.267,0,0,0,1.366,1.375c.172.2.052.326-.092.476a11.485,11.485,0,0,0-1.823,2.264.542.542,0,0,0-.205.324,5.813,5.813,0,0,0-.952,1.807,4.014,4.014,0,0,0-.437,1.21c-.093.339-.215.445-.5.172a.784.784,0,0,0-.087-.127q-4.037-3.979-8.077-7.954a23.5,23.5,0,0,0-2.191-2,1.249,1.249,0,0,0-1.675.067,4,4,0,0,0-.836.782,13.3,13.3,0,0,0-1.505,1.47,3.02,3.02,0,0,0-.635.62,13.815,13.815,0,0,0-1.521,1.493,2.6,2.6,0,0,0-.585.578,16.4,16.4,0,0,0-1.6,1.57l-.538.53a15.71,15.71,0,0,0-1.6,1.592,1.817,1.817,0,0,0-.53.529,15.839,15.839,0,0,0-1.61,1.59,2.1,2.1,0,0,0-.523.519,15.814,15.814,0,0,0-1.61,1.6,1.748,1.748,0,0,0-.518.517,15.879,15.879,0,0,0-1.624,1.6l-.51.505a18.123,18.123,0,0,0-1.655,1.647,1.456,1.456,0,0,0-.444.44,17.189,17.189,0,0,0-1.71,1.676l-.428.416a20.221,20.221,0,0,0-1.73,1.7,1.274,1.274,0,0,0-.411.395,24.782,24.782,0,0,0-1.828,1.728l-.275.239a1.32,1.32,0,0,1-1.487.346c-.224-.1-.43-.231-.645-.348l-.294-.23-1.832-1.789a.732.732,0,0,0-.3-.332c-.157-.227-.317-.452-.471-.681a1.386,1.386,0,0,1-.155-1.427l.941-1.047a7.277,7.277,0,0,0,1.049-1.091" transform="translate(-1462.25 1960.312)" fill="#009ef0" stroke="#009ef0" stroke-width="1"/>
    <path id="Path_45" data-name="Path 45" d="M2701.547,256.559l.98,1.96q.8,2.092,1.409,4.249.211,1.062.422,2.124.106,1.064.212,2.128a1.619,1.619,0,0,1-1.312,1.881c-.636.207-1.259.458-1.887.689l-2.128.614-2.142.485-4.245.753-2.112.276-2.13.228-2.122.187-2.13.161a1.074,1.074,0,0,0-.525.029.608.608,0,0,0-.424.02l-1.167.046-2.133.08a14.946,14.946,0,0,0-2.125.066,17.632,17.632,0,0,0-2.125.015l-2.125-.009a16.916,16.916,0,0,0-2.129-.061l-1.488-.032a24.03,24.03,0,0,0-2.761-.118,15.511,15.511,0,0,0-2.114-.14,13.649,13.649,0,0,0-2.137-.174,14.675,14.675,0,0,0-2.126-.219l-2.128-.285-2.112-.323a.034.034,0,0,0-.047.017l-4.217-.882-2.113-.58c-.779-.28-1.553-.571-2.337-.836a1.7,1.7,0,0,1-1.4-1.891q.118-1.06.236-2.12.2-1.065.409-2.13l.554-1.981a28.354,28.354,0,0,1,1.973-4.4l.574-.9.934-1.222,1.187-1.235,1.063-.883,1.042-.671,4.256-2.129,3.086-1.34a5.453,5.453,0,0,0,1.162-.458l2.129-.826c.464-.194.7-.055.749.461a3.652,3.652,0,0,0,.205.7q.461,2.159,1.128,4.265.317,1.066.633,2.133a18.545,18.545,0,0,0,.769,2.251,10.9,10.9,0,0,0,.648,1.773.214.214,0,0,0,.079.219,15.5,15.5,0,0,0,.855,2.128,32.529,32.529,0,0,0,1.951,4.237,35.027,35.027,0,0,0,2.347,4.251c.065.123.121.251.2.367.56.875.968.892,1.574.035a14.869,14.869,0,0,0,1.446-2.511,1.279,1.279,0,0,0,.286-.546,9.15,9.15,0,0,0,.841-1.6,14.968,14.968,0,0,0,.978-1.988,1.831,1.831,0,0,0,.312-.664,9.7,9.7,0,0,0,.718-1.6,14.992,14.992,0,0,0,.858-2.127,7.175,7.175,0,0,0,.54-1.487,16.372,16.372,0,0,0,.877-2.592,17.192,17.192,0,0,0,.684-2.3,7.079,7.079,0,0,0,.474-2.105,7.067,7.067,0,0,0,.617-2.143,1.6,1.6,0,0,0,.084-.192c.108-.368.1-.864.347-1.075.289-.252.668.231,1.048.235l2.138.9a19.421,19.421,0,0,0,2.116.913,18.221,18.221,0,0,0,2.132.934,3.835,3.835,0,0,0,.937.425,6.407,6.407,0,0,0,1.174.566l2.009,1.14.765.532,1.494,1.263a5.363,5.363,0,0,0,.831.884l1.187,1.664a1.151,1.151,0,0,0,.288.487" transform="translate(-1577.524 1767.064)" fill="#009ef0" stroke="#009ef0" stroke-width="1"/>
    <path id="Path_46" data-name="Path 46" d="M2733.535,83.015l.812-.755,1.912-1.275.212-.108,2.138-.8,1.788-.362,2.452-.044.955.027a.665.665,0,0,0,.43.033,1.878,1.878,0,0,0,.741.064l2.123.435c.179.071.355.15.537.213a8.35,8.35,0,0,1,3.714,2.339l.226.314a11.194,11.194,0,0,1,.851,2.022,4.331,4.331,0,0,0,1.042,1.61l.272.54a18.929,18.929,0,0,1,.63,2.106q.127,1.065.255,2.131l.028,2.119a1.407,1.407,0,0,0,.309,1.258,4.364,4.364,0,0,1,.531.761.254.254,0,0,0,.09.242,12.945,12.945,0,0,1,.193,1.987,12.052,12.052,0,0,1-1.013,4.257l-1.273,2.024a.247.247,0,0,0-.15.193,3.261,3.261,0,0,0-1.163,1.89,17.259,17.259,0,0,1-2.563,4.379,1.228,1.228,0,0,0-.4.419,13.117,13.117,0,0,1-4.245,2.667,11.3,11.3,0,0,1-2.117.284l-2.124-.184a10.821,10.821,0,0,1-2.119-.782,1.2,1.2,0,0,0-.509-.273l-1.636-1.243-.864-.867-1.247-1.63a2.3,2.3,0,0,0-.4-.684l-.879-1.947a3.89,3.89,0,0,0-.843-1.525l-.473-.593a14.281,14.281,0,0,1-2.121-4.257,9.706,9.706,0,0,1-.279-2.119,13.936,13.936,0,0,1,.3-2.131l.424-.755a1.631,1.631,0,0,0,.457-1.378,3.352,3.352,0,0,0,.065-1.059,1.292,1.292,0,0,0,.028-.64.611.611,0,0,0,.016-.415,20.241,20.241,0,0,0,.134-2.134q.16-1.054.319-2.108l.894-2.141.227-.4,1.307-1.7" transform="translate(-1644.51 1902.192)" fill="#009ef0" stroke="#009ef0" stroke-width="1"/>
    <path id="Path_47" data-name="Path 47" d="M2788.924,313.895l-1.14,2.11a.659.659,0,0,0-.2.356c-.1.063-.094.228-.254.251l-.4-.618c-.77-1.387-1.517-2.786-2.183-4.226a2.137,2.137,0,0,1-.077-1.09c.075-.343.128-.69.191-1.036q.259-1.064.521-2.128l.13-.277a9.669,9.669,0,0,1,2.11-.178c.332.024.664.06,1,.07a.69.69,0,0,1,.751.631c.128.634.322,1.254.488,1.881.076.372.13.75.236,1.113a1.3,1.3,0,0,1-.061,1,2.508,2.508,0,0,0-.377.761,8.733,8.733,0,0,0-.729,1.381" transform="translate(-1689.281 1718.066)" fill="#009ef0" stroke="#009ef0" stroke-width="1"/>
    <path id="Path_48" data-name="Path 48" d="M2574.938,111.152c.264.472.069.71-.4.842a5.213,5.213,0,0,0-.67.287l-4.255,1.661c-.653.2-.653.2-.826-.666,0-1.157-.357-1.728-1.273-2.035a9.667,9.667,0,0,0-2.129-.162l-4.269-.075a13.923,13.923,0,0,0-2.1,0,40.119,40.119,0,0,0-4.278.1,1.881,1.881,0,0,0-2.086,2.166,17.505,17.505,0,0,0-.017,2.129q-.005,1.062-.011,2.125a13.7,13.7,0,0,0-.023,2.132,16.491,16.491,0,0,0-.042,2.116q-.011,1.066-.022,2.132l-.014,2.123c-.044.934-.1,1.868-.127,2.8a1.352,1.352,0,0,1-.837,1.333l-1.055.163-2.132.088-2.12.015a14.788,14.788,0,0,0-2.134,0,15.145,15.145,0,0,0-2.119,0,17.823,17.823,0,0,0-2.129-.033c-.61-.056-1.227-.074-1.829-.176a1.618,1.618,0,0,1-1.465-1.6c-.033-.3-.068-.591-.1-.887a.38.38,0,0,0-.01-.322q-.009-.692-.017-1.384,0-1.062-.01-2.124t0-2.13q0-1.061,0-2.122t0-2.13v-8.5q0-1.061,0-2.122a1.107,1.107,0,0,1,.4-.866c7.127-7.08,14.183-14.23,21.364-21.255.442-.433.919-.83,1.363-1.261a1.685,1.685,0,0,1,1.574-.548,2.473,2.473,0,0,1,1,.567,8.662,8.662,0,0,0,1.116,1.051,8.615,8.615,0,0,0,1.072,1.05,7.65,7.65,0,0,0,1.063,1.051l1.073,1.071a7.673,7.673,0,0,0,1.053,1.052,8.62,8.62,0,0,0,1.072,1.074,7.8,7.8,0,0,0,1.052,1.058l1.069,1.07a8.262,8.262,0,0,0,1.055,1.063q0,.48,0,.96a12.225,12.225,0,0,1-.9,3.852,2.631,2.631,0,0,0-.121.509,7.48,7.48,0,0,0-.19,2.12,6.632,6.632,0,0,0,.17,2.131,11.173,11.173,0,0,0,1.681,4.248l2.54,4.255" transform="translate(-1488.299 1899.548)" fill="#009ef0" stroke="#009ef0" stroke-width="1"/>
    <path id="Path_49" data-name="Path 49" d="M2787.756,282.665h-2.126c-.288-.135-.141-.458-.286-.655l-.4-2.126c-.024-.21-.043-.421-.073-.63-.142-1-.173-.849.75-1.01l2.13-.04,2.125.088a.439.439,0,0,1,.3.54c-.054.347-.086.7-.128,1.047-.164.793-.34,1.584-.484,2.38-.055.3-.179.406-.487.39-.439-.022-.881.008-1.321.016" transform="translate(-1689.42 1741.43)" fill="#009ef0" stroke="#009ef0" stroke-width="1"/>
  </g>
</svg>
