<svg xmlns="http://www.w3.org/2000/svg" width="89.9" height="91.658" viewBox="0 0 89.9 91.658">
  <g id="Group_163" data-name="Group 163" transform="translate(-821.652 -2925.749)">
    <path id="Path_67" data-name="Path 67" d="M5325.842,170.157h-1.581a2.932,2.932,0,0,0-.33-.088,6.913,6.913,0,0,1-5.538-3.94c-.912-1.877-1.767-3.781-2.653-5.671-.674-1.439-1.356-2.875-1.985-4.207a28.987,28.987,0,0,1-3.048.857,4.408,4.408,0,0,1-3.029-.638,5.567,5.567,0,0,1-2.144-2.259,5.455,5.455,0,0,1-.581-3.769c.49-2.243,2.111-3.424,4.055-4.25a.8.8,0,0,0-.019-.151q-3.716-7.948-7.432-15.9c-2.087-4.464-4.2-8.917-6.237-13.4a24.874,24.874,0,0,1-.99-3.279v-1.778a1.238,1.238,0,0,0,.075-.227,10.135,10.135,0,0,1,2.944-5.841,10.615,10.615,0,0,1,10.172-3.064c3.143.607,6.234,1.478,9.352,2.22a1.687,1.687,0,0,1,1.348,1.277q2.769,9.694,5.563,19.382c.1.365.226.725.339,1.087a17.44,17.44,0,0,1,2.552-6.133,14.155,14.155,0,0,1,10.963-6.44c1.817-.141,3.652-.057,5.478-.1a.634.634,0,0,1,.694.447q3.3,7.383,6.629,14.753c.082.18.167.357.251.535l.107-.03V113.584h5.008v16.143a1.384,1.384,0,0,0,.333-.492q3.366-7.49,6.725-14.983a.537.537,0,0,1,.576-.394c1.629.024,3.26-.014,4.889.034a14.149,14.149,0,0,1,7.838,2.486,15.75,15.75,0,0,1,7.026,13.436c.092,11.045.037,22.092.006,33.137a6.965,6.965,0,0,1-.489,2.443,4.29,4.29,0,0,1-3.8,2.879,4.419,4.419,0,0,1-4.464-2.311,6.86,6.86,0,0,1-.785-3.615q.012-15.532.007-31.063v-.58h-3.012v37.379h-34.1V130.7h-3c-.008.161-.021.291-.021.42q0,2.988,0,5.976-.005,7.432-.016,14.865a5.313,5.313,0,0,1-.9,2.981.866.866,0,0,0-.111.818c.454,1.539.885,3.085,1.332,4.626a6.114,6.114,0,0,1,.135,3.026,8.214,8.214,0,0,1-5.434,6.034,21.46,21.46,0,0,1-2.7.716m-25.01-48.48,10.832,23.163c3.486-1.267,6.07-.458,7.512,2.315a5.429,5.429,0,0,1,.516,3.922,5.642,5.642,0,0,1-3.34,3.742c.041.1.065.18.1.252q2.3,4.915,4.6,9.827a3.839,3.839,0,0,0,2.871,2.2,6.321,6.321,0,0,0,5.652-1.665,4.087,4.087,0,0,0,1.028-5.289c-.842-1.6-1.551-3.265-2.315-4.9q-4.007-8.579-8.012-17.158-4.165-8.911-8.339-17.818c-.372-.794-.747-1.587-1.13-2.4-2.385,3.762-5.8,4.7-9.968,3.818m24.744,20.849.061-.021c-.018-.094-.028-.19-.054-.281q-2.366-8.219-4.736-16.437-2.573-8.931-5.133-17.865a.714.714,0,0,0-.619-.573c-2.591-.611-5.17-1.271-7.766-1.86a7.879,7.879,0,0,0-7.816,2.1,6.8,6.8,0,0,0-2.12,6.411,6.1,6.1,0,0,0,8.706,4.48,4.527,4.527,0,0,0,2.549-4.795,3.665,3.665,0,0,0-1.373-2.431,3.786,3.786,0,0,1,.625,4.286,4.353,4.353,0,0,1-6.383,1.542,5.149,5.149,0,0,1-1.506-6.531c1.446-2.942,5.672-3.942,8.558-2.053a8.341,8.341,0,0,1,2.857,3.748q2.607,5.613,5.232,11.219,3.646,7.794,7.3,15.585.812,1.735,1.621,3.473" transform="translate(-4472.178 2846.75)" fill="#009ef0" stroke="#009ef0" stroke-width="1"/>
    <path id="Path_68" data-name="Path 68" d="M5465.171,25.064V22.389h3.534c1-6.006,3.64-10.8,9.38-13.605V9.5c0,2.914-.008,5.827.011,8.741a2,2,0,0,0,.253.971.879.879,0,0,0,1.044.36.985.985,0,0,0,.75-.827,2.618,2.618,0,0,0,.02-.492q0-4.79,0-9.58c0-.263-.038-.5.348-.574a11.166,11.166,0,0,1,4.409.031,1.624,1.624,0,0,1,.218.084V8.8q0,4.741,0,9.481a2.228,2.228,0,0,0,.056.634,1.048,1.048,0,0,0,1.076.7,1.086,1.086,0,0,0,.928-.894,2.9,2.9,0,0,0,.021-.493q0-4.346,0-8.691V8.78c5.753,2.793,8.38,7.585,9.306,13.592h3.538v2.692Z" transform="translate(-4601.753 2918.351)" fill="#009ef0" stroke="#009ef0" stroke-width="1"/>
    <path id="Path_69" data-name="Path 69" d="M5492.316,88.009h21.634a11.3,11.3,0,0,1-4.768,10.292,10.7,10.7,0,0,1-11.85.172,11.393,11.393,0,0,1-5.016-10.464" transform="translate(-4622.284 2857.59)" fill="#009ef0" stroke="#009ef0" stroke-width="1"/>
  </g>
</svg>
