<svg xmlns="http://www.w3.org/2000/svg" width="80.758" height="94.213" viewBox="0 0 80.758 94.213">
  <g id="Group_158" data-name="Group 158" transform="translate(-1471.571 -2441.788)">
    <path id="Path_64" data-name="Path 64" d="M5009.949,146.02h5.036q3.285,0,6.569,0c1.487,0,2.266.547,2.25,1.571-.016.992-.753,1.505-2.2,1.506q-17.126,0-34.252,0c-7.578.009-15.155.06-22.732.071-3.165,0-6.33-.043-9.5-.076-1.228-.012-1.861-.522-1.883-1.482-.021-1,.663-1.583,1.9-1.591,1.685-.012,3.37-.04,5.053.014.751.024,1.021-.13,1.006-.961-.055-3.3-.023-6.6-.02-9.9a1.514,1.514,0,0,1,1.317-1.654,1.425,1.425,0,0,1,1.659,1.013,2.881,2.881,0,0,1,.079,1c.006,3.2.028,6.4-.013,9.6-.01.716.188.9.891.884,2.054-.048,4.11-.036,6.165-.006.6.009.875-.068.866-.792-.044-3.4-.035-6.805,0-10.208a.928.928,0,0,0-.714-1.015c-1.776-.713-3.532-1.475-5.295-2.219-1.808-.763-2.016-1.277-1.252-3.09q9.8-23.249,19.591-46.5c.476-1.128.478-1.156-.767-1.282-.9-.091-1.815-.131-2.723-.133-5.187-.012-10.376-.023-15.563,0a8.712,8.712,0,0,0-9.006,7.351,9.261,9.261,0,0,0-.106,1.609c-.007,5.256.01,10.512-.021,15.767,0,.686.131.942.866.9a26.041,26.041,0,0,1,3.232,0c.7.042.813-.218.809-.846-.026-4.312-.014-8.625-.014-12.937a2.34,2.34,0,0,1,.177-1.183,1.449,1.449,0,0,1,1.584-.825,1.412,1.412,0,0,1,1.27,1.244,4.618,4.618,0,0,1,.031.806q0,16.169,0,32.339c0,.134,0,.269,0,.4-.039,1.042-.584,1.658-1.485,1.677a1.536,1.536,0,0,1-1.569-1.711c-.016-3.032-.007-6.064-.007-9.1a3.413,3.413,0,0,1,0-.5c.09-.577-.15-.732-.717-.721-1.818.035-3.638.026-5.457.008-1.186-.011-1.767-.556-1.768-1.715-.008-8.016-.087-16.033.032-24.047a11.579,11.579,0,0,1,11.6-11.568c5.859-.117,11.722-.033,17.584-.018a8.877,8.877,0,0,1,2.987.444c.594.214.764-.011.954-.475.6-1.46,1.219-2.911,1.833-4.365.645-1.527,1.219-1.774,2.73-1.138q20.325,8.559,40.649,17.126c1.439.607,1.675,1.263,1.03,2.794q-11.128,26.4-22.257,52.808c-.14.332-.261.672-.437,1.127m-3.324-.532c.359-.113.373-.485.491-.765q3.18-7.511,6.349-15.026,7.8-18.511,15.6-37.026c.184-.438.625-.889-.238-1.251q-18.757-7.864-37.486-15.792c-.548-.231-.73-.126-.938.4-.677,1.716-1.407,3.41-2.124,5.11q-10,23.7-20.017,47.4c-.257.608-.071.786.461,1,1.9.754,3.79,1.544,5.675,2.339q15.768,6.656,31.533,13.322c.216.091.434.18.7.29m-7.164.534c.011-.066.021-.132.031-.2q-11.854-4.991-23.7-9.993c-.612-.259-.586.035-.585.464.007,3,.017,5.991-.009,8.987-.006.576.164.743.736.731,1.682-.036,3.365-.012,5.048-.012,2.08,0,2.08,0,2.118-2.031,0-.1,0-.2,0-.3a1.545,1.545,0,1,1,3.081-.021,16.579,16.579,0,0,1,0,1.817c-.024.444.133.571.571.57,4.237-.014,8.473-.008,12.709-.008m-40.779-34.034h.708c1.869,0,1.85,0,1.806-1.874-.012-.51-.122-.716-.673-.691-.941.044-1.885.012-2.828.012-1.393,0-1.325,0-1.414,1.364-.063.963.194,1.364,1.19,1.2a7.376,7.376,0,0,1,1.211-.009" transform="translate(-3481.146 2386.329)" fill="#009ef0" stroke="#009ef0" stroke-width="1"/>
    <path id="Path_65" data-name="Path 65" d="M5004.69,7.9A10.2,10.2,0,1,1,4994.5,18.113,10.167,10.167,0,0,1,5004.69,7.9m-.11,17.308a7.117,7.117,0,1,0-6.983-7.247,7.095,7.095,0,0,0,6.983,7.247" transform="translate(-3512.18 2434.389)" fill="#009ef0" stroke="#009ef0" stroke-width="1"/>
    <path id="Path_66" data-name="Path 66" d="M5050.889,104.9c.177.06.535.155.871.3q14.9,6.272,29.791,12.554c1.49.629,1.768,1.294,1.151,2.758q-9.209,21.858-18.422,43.713c-.689,1.636-1.242,1.859-2.885,1.167q-14.849-6.257-29.7-12.519c-1.53-.645-1.778-1.221-1.144-2.728q9.238-21.954,18.481-43.907a1.748,1.748,0,0,1,1.853-1.336m16.25,10.119c-.494-.029-.458.414-.571.682-2.54,6-5.06,12-7.612,17.988-.264.617-.212.888.448,1.16q5.539,2.278,11.039,4.653c.688.3.9.092,1.151-.51q3.74-8.966,7.537-17.909c.277-.651.274-.927-.475-1.231-3.668-1.489-7.306-3.057-10.954-4.6l-.562-.235m2.825,27.765c-.039-.364-.417-.339-.66-.442-3.7-1.571-7.423-3.108-11.115-4.705-.633-.274-.842-.144-1.089.447q-3.774,9.053-7.608,18.081c-.254.6-.185.834.424,1.086q5.58,2.3,11.124,4.691c.646.28.838.1,1.077-.474q3.782-9.049,7.607-18.08c.079-.186.149-.374.24-.6m-14.309-9.538c.28-.031.308-.333.4-.558,2.569-6.093,5.125-12.193,7.72-18.276.259-.609.1-.782-.439-1.007q-5.583-2.31-11.136-4.692c-.62-.267-.817-.139-1.063.45q-3.782,9.061-7.635,18.092c-.278.651-.1.848.475,1.088,3.721,1.541,7.429,3.115,11.141,4.677l.535.226m-1.12,3.038c-.075-.332-.412-.342-.661-.447-3.707-1.567-7.423-3.116-11.12-4.708-.6-.259-.818-.155-1.066.441q-3.779,9.054-7.631,18.079c-.3.7-.058.893.521,1.133,3.686,1.531,7.369,3.072,11.033,4.656.628.272.827.135,1.073-.457q3.774-9.057,7.6-18.092c.078-.185.154-.372.251-.6" transform="translate(-3539.038 2361.481)" fill="#009ef0" stroke="#009ef0" stroke-width="1"/>
  </g>
</svg>
