<svg xmlns="http://www.w3.org/2000/svg" width="75.286" height="105.302" viewBox="0 0 75.286 105.302">
  <g id="Group_132" data-name="Group 132" transform="translate(2 2)">
    <g id="Group_131" data-name="Group 131">
      <path id="Path_92" data-name="Path 92" d="M6.5,1124.161v-101.3H62.775l15.008,15.008v86.294Z" transform="translate(-6.496 -1022.859)" fill="none" stroke="#009ef0" stroke-width="4"/>
      <path id="Path_93" data-name="Path 93" d="M12,1025.86H38.26" transform="translate(8.639 -1014.604)" fill="none" stroke="#0c5286" stroke-width="1"/>
      <path id="Path_94" data-name="Path 94" d="M9,1028.86H61.523M9,1036.364H61.523M9,1043.868H61.523M9,1051.372H61.523M9,1058.875H36.341" transform="translate(0.383 -1006.349)" fill="none" stroke="#406b95" stroke-width="1"/>
      <path id="Path_95" data-name="Path 95" d="M21.5,1022.859v15.008H36.5" transform="translate(33.957 -1022.859)" fill="none" stroke="#009ef0" stroke-width="4" fill-rule="evenodd"/>
      <path id="Path_96" data-name="Path 96" d="M27.5,33.529c-1.08.616-5.459-2-6.687-1.79s-4.436,4.156-5.664,3.942-2.878-5-3.958-5.618-6.1.367-6.9-.577,1.05-5.659.624-6.816S0,19.076,0,17.844s4.487-3.668,4.913-4.825S3.488,7.146,4.29,6.2s5.824.039,6.9-.577S13.923.222,15.151.008s4.436,3.728,5.664,3.942S26.423,1.544,27.5,2.159s.972,5.672,1.774,6.616,5.861,1.717,6.288,2.874-2.946,4.962-2.946,6.194,3.373,5.037,2.946,6.194-5.486,1.931-6.288,2.874-.694,6-1.774,6.616Z" transform="matrix(1, -0.01, 0.011, 1, 17.468, 59.577)" fill="#009ef0"/>
    </g>
    <g id="Octicons" transform="translate(28.343 69.785)">
      <g id="git-compare">
        <path id="Shape" d="M4.943,11.864H3.955a1.034,1.034,0,0,1-.682-.306.932.932,0,0,1-.306-.682V4.667a1.975,1.975,0,1,0-1.977,0v6.209a2.938,2.938,0,0,0,.929,2.037,3,3,0,0,0,2.037.929h.989v1.977l2.966-2.966L4.943,9.887v1.977ZM1.977,1.78a1.186,1.186,0,0,1,0,2.373A1.2,1.2,0,0,1,.791,2.966,1.2,1.2,0,0,1,1.977,1.78Zm10.875,9.373V4.943a2.938,2.938,0,0,0-.929-2.037,3,3,0,0,0-2.037-.929H8.9V0L5.932,2.966,8.9,5.932V3.955h.989a1.034,1.034,0,0,1,.682.306.932.932,0,0,1,.306.682v6.209a1.975,1.975,0,1,0,1.977,0Zm-.989,2.887a1.186,1.186,0,1,1,1.186-1.186A1.2,1.2,0,0,1,11.864,14.039Z" transform="translate(-0.002)" fill="#fff" fill-rule="evenodd"/>
      </g>
    </g>
  </g>
</svg>
