<svg xmlns="http://www.w3.org/2000/svg" width="97.078" height="80.252" viewBox="0 0 97.078 80.252">
  <g id="Group_159" data-name="Group 159" transform="translate(-1041.428 -2441.792)">
    <path id="Path_57" data-name="Path 57" d="M4390.549,20.324c.768-.68,1.553-1.346,2.353-1.983.9-.713,1.764-1.456,2.646-2.183,2.782-2.292,5.538-4.617,8.306-6.928a3.714,3.714,0,0,1,5.058,0q4.459,3.724,8.915,7.454c.711.594,1.4,1.216,2.135,1.781.782.6,1.474,1.313,2.282,1.882q2.646,2.225,5.291,4.449,12.712,10.63,25.426,21.256a3.593,3.593,0,0,1,1.333,3.82,3.5,3.5,0,0,1-2.817,2.74,3.684,3.684,0,0,1-3.306-.906c-2.075-1.752-4.164-3.487-6.249-5.229q-17.613-14.722-35.223-29.451c-.27-.226-.412-.189-.661.019Q4385.326,34.375,4364.6,51.7a3.7,3.7,0,0,1-3.632.829,3.694,3.694,0,0,1-1.358-6.3c1.459-1.274,2.962-2.5,4.45-3.74l26.208-21.908c.1-.081.187-.17.28-.256" transform="translate(-3316.415 2434.137)" fill="#009ef0" stroke="#009ef0" stroke-width="1"/>
    <path id="Path_58" data-name="Path 58" d="M4488.529,140.973c-.008-.2-.024-.394-.024-.592q0-16.745,0-33.491a.747.747,0,0,0-.286-.65q-14.366-11.993-28.714-24.009c-.316-.265-.484-.253-.79,0q-14.2,11.891-28.427,23.757a.828.828,0,0,0-.327.717q.012,16.979.015,33.958c0,.367-.063.5-.472.493-1.244-.031-2.49-.011-3.734-.011-.591,0-.591,0-.591-.612v-30.6c0-1.5.024-3-.009-4.5a2.756,2.756,0,0,1,1.074-2.323q10.772-8.981,21.528-17.981l9.64-8.053a2.42,2.42,0,0,1,3.381-.019q15.76,13.172,31.518,26.345a2.629,2.629,0,0,1,1,2.144q-.011,17.595,0,35.189c0,.324-.067.429-.412.423-1.33-.022-2.659-.006-3.99-.013-.125,0-.283.085-.379-.083.071-.033.064-.063,0-.089" transform="translate(-3369.129 2380.382)" fill="#009ef0" stroke="#009ef0" stroke-width="1"/>
    <path id="Path_59" data-name="Path 59" d="M4541.684,264.794h-10.312c-1.074,0-1.449-.378-1.449-1.455q0-5.2,0-10.4a11.809,11.809,0,0,1,23.5-1.64,12.242,12.242,0,0,1,.119,1.734q0,5.177,0,10.354c0,1.009-.4,1.4-1.419,1.4h-10.438m9.579-7.589q0-2.059,0-4.117a10.272,10.272,0,0,0-.185-1.981,9.526,9.526,0,0,0-18.871,1.734c-.023,3.1,0,6.2-.011,9.3,0,.316.077.4.4.4q3.438-.022,6.876,0c.335,0,.39-.107.388-.41q-.022-2.483,0-4.966a.566.566,0,0,0-.314-.568,4.072,4.072,0,0,1-2.041-3.337,4.24,4.24,0,1,1,6.417,3.342.535.535,0,0,0-.312.526q.021,2.5,0,5.008c0,.314.072.4.4.4q3.438-.022,6.875,0c.331,0,.4-.1.393-.408-.014-1.641-.006-3.282-.007-4.923" transform="translate(-3451.762 2250.391)" fill="#009ef0" stroke="#009ef0" stroke-width="1"/>
    <path id="Path_60" data-name="Path 60" d="M4528.355,365.2h-12.982a2.4,2.4,0,0,1-.011-4.8q13.025,0,26.051,0a2.248,2.248,0,0,1,2.316,1.931,2.354,2.354,0,0,1-1.717,2.817,2.707,2.707,0,0,1-.674.054h-12.983" transform="translate(-3438.393 2156.331)" fill="#009ef0" stroke="#009ef0" stroke-width="1"/>
    <path id="Path_61" data-name="Path 61" d="M4523.7,187.461a22.689,22.689,0,0,1,15.783,6.587,1.645,1.645,0,0,1,.371,2.146,1.613,1.613,0,0,1-1.892.66,2.07,2.07,0,0,1-.761-.525,19.739,19.739,0,0,0-27.166-.432c-.229.209-.45.43-.684.636a1.6,1.6,0,0,1-2.161-.017,1.568,1.568,0,0,1-.144-2.183,13.61,13.61,0,0,1,1.965-1.808,23.012,23.012,0,0,1,14.688-5.064" transform="translate(-3433.418 2292.752)" fill="#009ef0" stroke="#009ef0" stroke-width="1"/>
    <path id="Path_62" data-name="Path 62" d="M4537.46,212.734a17.41,17.41,0,0,1,12.061,5.05,1.9,1.9,0,0,1,.646,1.069,1.6,1.6,0,0,1-2.744,1.382,15.2,15.2,0,0,0-3.905-2.814,14.4,14.4,0,0,0-16.133,2.386c-.175.165-.345.335-.524.5a1.612,1.612,0,0,1-2.2.008,1.58,1.58,0,0,1-.11-2.218,14.972,14.972,0,0,1,3.026-2.513,17.78,17.78,0,0,1,9.881-2.846" transform="translate(-3447.209 2272.816)" fill="#009ef0" stroke="#009ef0" stroke-width="1"/>
    <path id="Path_63" data-name="Path 63" d="M4545.645,265.342a8.908,8.908,0,0,1,8.685-8.464,1.144,1.144,0,1,1,.065,2.271,6.648,6.648,0,0,0-6.232,4.814,6.3,6.3,0,0,0-.244,1.5,1.149,1.149,0,1,1-2.273-.122" transform="translate(-3464.164 2237.992)" fill="#009ef0" stroke="#009ef0" stroke-width="1"/>
  </g>
</svg>
