<svg xmlns="http://www.w3.org/2000/svg" width="85.895" height="85.895" viewBox="0 0 85.895 85.895">
  <g id="Group_160" data-name="Group 160" transform="translate(-610.67 -2442.787)">
    <path id="Path_53" data-name="Path 53" d="M3986.808,19.217h-2.83v-5.66a5.66,5.66,0,0,0-5.66-5.66h-56.6a5.66,5.66,0,0,0-5.659,5.66v5.66h-2.83a5.66,5.66,0,0,0-5.66,5.66V72.984a5.659,5.659,0,0,0,5.66,5.659h27.811l-3.4,11.319h-3.192v2.83h31.128v-2.83h-3.191L3959,78.644h27.811a5.66,5.66,0,0,0,5.66-5.659V24.877a5.66,5.66,0,0,0-5.66-5.66m-76.405,5.66a2.83,2.83,0,0,1,2.83-2.83h2.83V64.495h2.83V13.558a2.83,2.83,0,0,1,2.83-2.83h56.6a2.83,2.83,0,0,1,2.83,2.83V64.495h2.83V22.047h2.83a2.83,2.83,0,0,1,2.831,2.83V67.324H3910.4Zm49.035,65.086H3940.6l3.4-11.319h12.043Zm30.2-16.979a2.83,2.83,0,0,1-2.831,2.83h-73.575a2.83,2.83,0,0,1-2.83-2.83v-2.83h79.236Z" transform="translate(-3296.402 2435.389)" fill="#009ef0" stroke="#009ef0" stroke-width="1"/>
    <rect id="Rectangle_299" data-name="Rectangle 299" width="7.496" height="2.83" transform="matrix(0.976, -0.218, 0.218, 0.976, 672.016, 2467.862)" fill="#009ef0" stroke="#009ef0" stroke-width="1"/>
    <rect id="Rectangle_300" data-name="Rectangle 300" width="6.004" height="2.83" transform="translate(668.181 2455.021) rotate(-45.005)" fill="#009ef0" stroke="#009ef0" stroke-width="1"/>
    <rect id="Rectangle_301" data-name="Rectangle 301" width="2.83" height="6.327" transform="matrix(0.447, -0.894, 0.894, 0.447, 674.209, 2482.756)" fill="#009ef0" stroke="#009ef0" stroke-width="1"/>
    <path id="Path_54" data-name="Path 54" d="M4010.285,36.192a4.413,4.413,0,0,0-8.615,1.924l.436,1.952-17.8,11.227-7.075,1.579a8.9,8.9,0,0,0,.931,17.545l2.414,10.813a1.415,1.415,0,0,0,1.687,1.069L3988.117,81a1.416,1.416,0,0,0,1.074-1.69l-2.306-10.329,1.307-.292,20.883,2.591.424,1.892a4.412,4.412,0,0,0,8.612-1.923ZM3973.239,62.9a6.085,6.085,0,0,1,4.608-7.26l5.935-1.325,1.325,5.935,1.324,5.934-1.543.345-4.386.98a6.084,6.084,0,0,1-7.258-4.609Zm12.876,15.641-3.092.691-2-8.944.075-.017,3.01-.672Zm3.165-12.567-2.83-12.683L4002.758,43l5.66,25.342Zm24.9,7.774a1.585,1.585,0,0,1-1.921-1.195L4004.432,37.5a1.583,1.583,0,0,1,3.09-.687l7.82,35.052a1.592,1.592,0,0,1-1.161,1.883Z" transform="translate(-3344.888 2416.167)" fill="#009ef0" stroke="#009ef0" stroke-width="1"/>
  </g>
</svg>
