<svg xmlns="http://www.w3.org/2000/svg" width="53.112" height="95.724" viewBox="0 0 53.112 95.724">
  <g id="Group_161" data-name="Group 161" transform="translate(-180.519 -2437.787)">
    <path id="Path_51" data-name="Path 51" d="M3711.622,15.559c0,4.231-3.931,7.66-8.781,7.66s-8.783-3.43-8.783-7.66,3.93-7.661,8.783-7.661,8.781,3.429,8.781,7.661" transform="translate(-3495.56 2430.389)" fill="#009ef0" stroke="#009ef0" stroke-width="1"/>
    <path id="Path_52" data-name="Path 52" d="M3670.749,135.266c7.287-1.27,15.188-2.855,15.188-2.855-1.636-5.709-5.4-49.08-5.4-53.646s-10.469-7.992-10.469-7.992l-5.234.892,2.615,17.616-.009.213h-3.264v4.848H3656l.034-4.848h-3.3l2.616-17.636-5.235-1.113s-10.47,3.439-10.47,8.005-3.924,47.954-5.56,53.662c0,0,7.922,1.6,15.192,2.88l.043,11.233s-.4,3.082,4.14,3.082,5.108-3.482,5.108-3.482l0-9.422c.523.056.986.094,1.364.111.415-.018.938-.064,1.532-.129l0,9.437s.567,3.481,5.107,3.481,4.14-3.085,4.14-3.085Z" transform="translate(-3452.937 2383.403)" fill="#009ef0" stroke="#009ef0" stroke-width="1"/>
  </g>
</svg>
