<svg xmlns="http://www.w3.org/2000/svg" width="76.278" height="95.143" viewBox="0 0 76.278 95.143">
  <g id="Group_91" data-name="Group 91" transform="translate(0.518 0.5)">
    <path id="Path_28" data-name="Path 28" d="M1235.364,184.968c-2.354,1.286-4.551,2.513-6.773,3.693a2.942,2.942,0,0,1-4.413-2.034,3.019,3.019,0,0,1,1.739-3.242q5.454-2.983,10.917-5.95,11.487-6.249,22.97-12.506a3.574,3.574,0,0,1,3.737-.031q16.935,9.242,33.891,18.446a2.977,2.977,0,0,1,1.461,4.175,3.014,3.014,0,0,1-4.293,1.058c-2.187-1.171-4.369-2.352-6.709-3.613-.023.511-.055.887-.055,1.263q0,14.571,0,29.142c0,2.158-.578,2.733-2.727,2.734q-5.809,0-11.617,0c-2.115,0-2.713-.613-2.713-2.76,0-2.8.024-5.595-.008-8.392a9.138,9.138,0,0,0-18.04-1.977,11.052,11.052,0,0,0-.251,2.374c-.03,2.8-.008,5.594-.013,8.392,0,1.706-.636,2.357-2.32,2.361q-6.131.013-12.262,0c-1.723,0-2.461-.763-2.461-2.487q0-14.891,0-29.783c0-.236-.031-.472-.058-.863m24.81-.823c0,2.1,0,4.095,0,6.084,0,1.773.082,1.846,1.887,1.763.062,0,.123-.007.184-.007.571.006.841-.268.833-.847-.013-.984,0-1.967,0-2.951,0-1.314,0-2.627,0-4.043,1.127,0,2.133.006,3.139,0,1.1-.008,1.293-.192,1.329-1.274.009-.276,0-.553,0-.83.006-.766-.343-1.108-1.135-1.078-1.067.041-2.137.01-3.327.01,0-.971.014-1.854,0-2.737-.019-.979-.2-1.119-1.35-1.122-1.266,0-1.528.182-1.546,1.153-.017.879,0,1.758,0,2.594a1.764,1.764,0,0,1-.306.092q-1.29.012-2.581.016c-1.411,0-1.552.141-1.555,1.511,0,1.5.157,1.663,1.608,1.666.912,0,1.824,0,2.834,0" transform="translate(-1224.121 -123.963)" fill="#009ef0" stroke="#009ef0" stroke-width="1"/>
    <path id="Path_29" data-name="Path 29" d="M1292.328,11.16c-1.049,0-1.992-.018-2.935.006-.788.019-1.245-.235-1.123-1.119a3.081,3.081,0,0,0,0-.737c-.086-.824.331-1.1,1.092-1.078.946.023,1.894.006,2.965.006,0-1.085.028-2.058-.009-3.029-.027-.719.278-1,.976-1,2.514.006,2.107-.141,2.122,2.014.014,2.009,0,2.01,1.98,2.011h.092c2.3,0,1.924-.074,1.987,1.988.021.689-.251.948-.905.937-.829-.014-1.66.012-2.49,0-.465-.01-.668.166-.662.644.016,1.2-.047,2.4.038,3.6a1.436,1.436,0,0,0,.717.906c4.542,2.509,9.1,4.986,13.659,7.47q4.408,2.4,8.816,4.805c1.731.948,2.319,2.605,1.495,4.159a3,3,0,0,1-4.292,1.105c-1.355-.7-2.695-1.438-4.181-2.233V47.884c-.437-.218-.733-.354-1.018-.51-4.933-2.692-9.881-5.355-14.785-8.1a4.012,4.012,0,0,0-4.318.007c-4.959,2.77-9.969,5.448-14.96,8.161-.213.116-.432.219-.792.4V31.567c-1.418.768-2.639,1.449-3.88,2.091a5.317,5.317,0,0,1-1.525.6,2.849,2.849,0,0,1-3.2-1.91,2.883,2.883,0,0,1,1.312-3.573c2.084-1.18,4.2-2.3,6.3-3.45q8.333-4.537,16.673-9.061a1.338,1.338,0,0,0,.866-1.417c-.072-1.186-.019-2.38-.019-3.689m1.421,23.733c.829,0,1.659-.014,2.488,0a.97.97,0,0,0,1.13-1.115c-.009-1.5.038-3.013-.047-4.514a3.647,3.647,0,0,0-7.285.161c-.043,1.412,0,2.826-.021,4.239-.012.866.431,1.225,1.248,1.224s1.658,0,2.488,0" transform="translate(-1256.182 -4.212)" fill="#009ef0" stroke="#009ef0" stroke-width="1"/>
  </g>
</svg>
