<svg xmlns="http://www.w3.org/2000/svg" width="94.805" height="93.276" viewBox="0 0 94.805 93.276">
  <g id="Group_92" data-name="Group 92" transform="translate(0.491 0.602)">
    <path id="Union_1" data-name="Union 1" d="M45.662,58.609c-1.073-.076-2.152-.072-3.231-.068-.459,0-.918,0-1.376,0q-2.643.026-5.288.049c-.229,0-.464,0-.6-.238v0a2.191,2.191,0,0,1-.12-1.225c-.009-4.975-.025-9.95.019-14.925.008-.923-.292-1.172-1.179-1.17Q17.25,41.074.61,41.067c-.262,0-.573.118-.563-.3a39.552,39.552,0,0,1,.13-5.841Q4.69,28.539,9.2,22.146q3.951-5.594,7.908-11.185,2.067-2.916,4.133-5.831c.283-.021.382-.178.326-.446l.032-.358c.549-.159.727-.678,1.023-1.074A24.1,24.1,0,0,1,24.757.394a2.232,2.232,0,0,1,.41,0c.353.022.706.044.952-.35C27.133.035,28.148.016,29.162.018Q40.208.03,51.253.049c.284.45.737.346,1.152.346q6.825,0,13.65,0-6.825-.007-13.65,0c-.414,0-.868.105-1.152-.345L51.463,0l4.263,0q7.8.02,15.605.039c7.068.006,14.135.019,21.2-.02.977-.005,1.3.243,1.281,1.259A29.57,29.57,0,0,0,93.748,5.2a2.15,2.15,0,0,1-.481,1.456Q84.657,18.776,76.075,30.92c-2.261,3.192-4.548,6.366-6.791,9.571a1.4,1.4,0,0,1-1.361.548q-9.473,0-18.943,0c-.361,0-.723.031-1.079,0-.818-.073-1.069.285-1.064,1.09.034,5.072,0,10.146.052,15.218.01.884-.156,1.271-.99,1.271C45.826,58.618,45.746,58.615,45.662,58.609ZM35.172,52.5q0-5.067-.007-10.134Q35.181,47.428,35.172,52.5Zm5.878-4.353q0-1.521,0-3.042Q41.049,46.621,41.05,48.142Zm-5.885-5.8q0-.016,0-.033Q35.165,42.328,35.165,42.345Zm5.885-.3q0-.018,0-.036Q41.05,42.023,41.05,42.041Zm-.915-.755h0Zm.035,0h0Zm.035,0h0Zm.035,0h0Zm.07,0,.1-.008Zm.105-.008h0Zm.07-.006Zm.06,0h0Zm.052,0h0Zm-4.49-.068.032-.006Zm.036-.007.029-.005ZM8.926,35.168h0Zm-.013,0q-2.462-.009-4.924-.006H.981c-.087,0-.177.006-.265.006l.13,0c.045,0,.09,0,.135,0H3.814Q6.362,35.161,8.913,35.167ZM.287,35.049h0Zm-.006-.005,0,0Zm-.006,0,0,0Zm-.005,0a.563.563,0,0,1-.093-.1A.56.56,0,0,0,.27,35.035Zm9.821-.149c1.383-.644,2.565-1.62,3.927-2.352C12.656,33.265,11.473,34.241,10.09,34.886Zm6.736-13.364c-.217.319-.434.638-.666.945q-2.809,3.726-5.623,7.447a1.407,1.407,0,0,0-.184,1.482,1.38,1.38,0,0,0,1.337.818c.554,0,1.11.021,1.665.032.14.235.43.1.661.289-.231-.185-.522-.054-.661-.289,2.681,0,5.364-.047,8.044.02a2.383,2.383,0,0,0,2.153-1.031c1.3-1.748,2.569-3.527,3.931-5.229a19.493,19.493,0,0,1,2.259-2.862c.081.01.16.018.238.021-.078,0-.157-.011-.238-.021.439-2.006-.092-2.651-2.206-2.655q-1.758,0-3.514,0c-1.7,0-3.408,0-5.111-.006H18.9A2.326,2.326,0,0,0,16.827,21.522ZM42.9,32.257a2.147,2.147,0,0,0,1.868-1c1.622-2.069,2.965-4.343,4.7-6.324.493-.561.9-1.192,1.352-1.792a1.655,1.655,0,0,0,.354-1.273c-.136-.923-.775-1.4-1.99-1.4-1.032-.005-2.065,0-3.1,0-1.876.008-3.752.015-5.626-.032a2.965,2.965,0,0,0-2.693,1.416c-1,1.392-2.074,2.732-3.1,4.108-.987,1.326-2.011,2.63-2.908,4.015-.783,1.207-.125,2.256,1.333,2.266,1.634.011,3.268,0,4.9,0v0c.962,0,1.925-.012,2.887-.012C41.562,32.232,42.233,32.237,42.9,32.257ZM59,21.85c-.771,1.119-1.508,2.272-2.383,3.308-1.237,1.464-2.323,3.04-3.5,4.551a1.454,1.454,0,0,0-.342,1.7,1.653,1.653,0,0,0,1.635.843c1.6-.046,3.2-.014,4.8-.013,1.667,0,3.334-.026,5,.013a1.787,1.787,0,0,0,1.6-.76q3.146-4.216,6.3-8.429a1.514,1.514,0,0,0-.014-1.985,2.028,2.028,0,0,0-1.776-.62c-.907,0-1.813,0-2.721.006-1.968.009-3.938.018-5.9-.036l-.118,0A2.9,2.9,0,0,0,59,21.85Zm-26.367.036q1.422-.824,2.848-1.641C34.529,20.792,33.578,21.337,32.63,21.886Zm2.976-1.715.144-.083Zm.428-.247.035-.02ZM50.947,2.992a2.261,2.261,0,0,0-1.931.95c-2.045,2.771-4.1,5.531-6.144,8.3-.9,1.223-.554,2.116.926,2.482.6.265.317.491-.037.7q-3.675,2.145-7.355,4.283,3.681-2.136,7.356-4.283c.354-.207.633-.433.036-.7a2.208,2.208,0,0,1,1.029.065,3.155,3.155,0,0,0,.709.1c1.245-.006,2.49-.005,3.736,0,1.429,0,2.858,0,4.287-.007a2.392,2.392,0,0,0,2.065-1.055c1.832-2.516,3.746-4.973,5.605-7.471.454-.609,1.126-1.132,1.017-2.032A1.666,1.666,0,0,0,60.45,3q-3.1-.006-6.192-.006ZM74.985,14.756a1.955,1.955,0,0,0,1.7-.788Q79.9,9.678,83.111,5.382A1.328,1.328,0,0,0,83.3,3.83a1.385,1.385,0,0,0-1.377-.723c-1.7.028-3.4.01-5.1.007-1.636,0-3.273.033-4.907-.015a1.844,1.844,0,0,0-1.66.828c-2,2.689-4,5.386-6.031,8.055-.444.583-.809,1.181-.482,1.869a1.882,1.882,0,0,0,1.924.9q2.741,0,5.481-.008Q73.063,14.744,74.985,14.756Zm-42.613-.023a2.37,2.37,0,0,0,2.141-1.112c.994-1.323,2.02-2.623,3.009-3.951C38.553,8.285,39.585,6.9,40.562,5.48c.835-1.215.419-2.2-1.017-2.338a60.751,60.751,0,0,0-6.964-.149c-1.075.019-2.152.037-3.226.029a1.927,1.927,0,0,0-1.527.946C25.806,6.685,23.794,9.41,21.741,12.1a1.551,1.551,0,0,0-.334,1.785,1.61,1.61,0,0,0,1.642.836c1.6-.008,3.206,0,4.809,0v-.008c.893,0,1.788-.018,2.682-.018C31.15,14.7,31.761,14.7,32.371,14.732ZM63.6,4.082c.826-.516,1.675-1,2.5-1.519-.821.516-1.671,1-2.5,1.518a1.526,1.526,0,0,1-1.053.353A1.532,1.532,0,0,0,63.6,4.082Zm-1.056.352-.012,0Zm-.013,0-.012,0ZM62.423,4.4h0Zm-.007,0-.037-.013Zm-.133-.055-.022-.011Zm7-3.773a1.022,1.022,0,0,0-.121-.078A1.022,1.022,0,0,1,69.278.573ZM68.18.4c.076,0,.155-.006.234-.012-.08.005-.158.012-.235.012Zm.383-.021.06,0Zm.168,0-.077,0Z" transform="translate(0 33.556)" fill="#009ef0" stroke="#009ef0" stroke-miterlimit="10" stroke-width="1"/>
    <path id="Path_31" data-name="Path 31" d="M1688.351,45.577l-4.264,0c.14-1.382.671-2.67.9-4.049a16.175,16.175,0,0,0-1.336-9.7,16.706,16.706,0,0,0-2.177-3.532,17.708,17.708,0,0,0-14.329-6.672,19.284,19.284,0,0,0-4.209.732,14.38,14.38,0,0,0-6.547,3.482A17.054,17.054,0,0,0,1650.585,36a17.416,17.416,0,0,0,.7,8.734c.227.639.78,1.136.89,1.748a6.7,6.7,0,0,0,2.049,3.418l-.032.358c-.265.035-.35.2-.326.447l-4.132,5.83c-1.079.012-2.158.05-3.237.03a2.044,2.044,0,0,1-1.958-2.965c.709-1.932,1.839-3.662,2.529-5.608.53-1.5.507-2.344-.69-3.418a22.464,22.464,0,0,0-3.77-2.205c-1.118-.667-2.365-1.2-3.021-2.538a1.657,1.657,0,0,1,.364-2.132c1.215-1.315,2.931-1.813,4.382-2.74.815-.521,1.836-.705,2.439-1.593a2.494,2.494,0,0,0,.534-2.044,20.045,20.045,0,0,0-2.087-5.215,7.086,7.086,0,0,1-.783-2.254c-.2-1.385.387-2.035,2.088-2.234,1.909-.223,3.752.424,5.643.435.229,0,.457.021.686.025,2.307.045,2.679-.193,3.374-2.678.465-1.665.766-3.376,1.151-5.064a5.854,5.854,0,0,1,.891-1.887c.4-.606,1.561-.543,2.515,0a20.394,20.394,0,0,1,3.638,3.149,11.418,11.418,0,0,0,2.162,1.734,2.2,2.2,0,0,0,2.586-.194,35.2,35.2,0,0,0,3.622-3.158c.594-.537,1.239-1.021,1.882-1.5a2.066,2.066,0,0,1,3.085.786,10.261,10.261,0,0,1,.754,2.661,31.782,31.782,0,0,0,.839,3.96c.5,1.518.914,2.174,2.692,2.216,2.356.056,4.641-.732,7-.481a1.861,1.861,0,0,1,1,.22,1.9,1.9,0,0,1,.873,2.512c-.577,1.94-1.627,3.663-2.37,5.521-.4.989-.826,2.046-.13,3.128a1.2,1.2,0,0,0,.37.4,46.1,46.1,0,0,0,4.746,2.8,7.428,7.428,0,0,1,2.135,1.61c1.07,1.17.592,2.364-.965,3.381-1.593,1.04-3.329,1.858-4.95,2.859a2.839,2.839,0,0,0-1.407,1.516" transform="translate(-1632.624 -12.018)" fill="#009ef0" stroke="#009ef0" stroke-width="1"/>
    <path id="Path_34" data-name="Path 34" d="M1716.406,74.062q-11.046-.016-22.091-.032c-1.014,0-2.029.017-3.043.027-.471.049-1.053-.33-1.363.35a24.144,24.144,0,0,0-2.131,2.858c-.3.4-.474.915-1.023,1.074a6.7,6.7,0,0,1-2.049-3.418c-.11-.612-.663-1.108-.89-1.747a17.423,17.423,0,0,1-.7-8.734,17.054,17.054,0,0,1,5.805-10.167,14.378,14.378,0,0,1,6.547-3.482,19.286,19.286,0,0,1,4.209-.732A17.707,17.707,0,0,1,1714,56.73a16.7,16.7,0,0,1,2.177,3.532,16.171,16.171,0,0,1,1.336,9.7c-.23,1.379-.761,2.668-.9,4.049l-.21.049" transform="translate(-1665.152 -40.457)" fill="#009ef0" stroke="#009ef0" stroke-width="1"/>
    <path id="Path_40" data-name="Path 40" d="M1697.185,163.534c.055.269-.043.426-.326.447-.024-.246.061-.412.326-.447" transform="translate(-1675.615 -125.295)" fill="#009ef0" stroke="#009ef0" stroke-width="1"/>
    <path id="Path_42" data-name="Path 42" d="M1710.791,145.318c.31-.68.891-.3,1.363-.35-.343.55-.894.291-1.363.35" transform="translate(-1686.034 -111.368)" fill="#009ef0" stroke="#009ef0" stroke-width="1"/>
  </g>
</svg>
