<svg xmlns="http://www.w3.org/2000/svg" width="67.769" height="90.669" viewBox="0 0 67.769 90.669">
  <g id="Group_164" data-name="Group 164" transform="translate(-1256.468 -2926.755)">
    <path id="Path_70" data-name="Path 70" d="M5885.3,0a11.9,11.9,0,0,1,4.926,2.108,9.887,9.887,0,1,1-7.77-1.951,2.081,2.081,0,0,0,.393-.157Z" transform="translate(-4586.199 2927.255)" fill="#009ef0" stroke="#009ef0" stroke-width="1"/>
    <path id="Path_71" data-name="Path 71" d="M5794.287,67l-.6-1.827a8.265,8.265,0,0,0-3.91,2.821,11.549,11.549,0,0,0-2.614,7.442q-.027,7.178,0,14.357a4.049,4.049,0,0,0,3.868,4.267c2.149.248,2.152.248,2.146,2.411,0,.729.008,1.461-.05,2.186a4.5,4.5,0,0,1-8.984-.06c-.031-.407-.036-.816-.036-1.224q0-12.562,0-25.124v-1.07H5780.5V72.2q0,12.868,0,25.737a4.6,4.6,0,0,1-2.793,4.545,4.513,4.513,0,0,1-6.177-3.338,8.9,8.9,0,0,1-.118-1.654q-.009-22.673,0-45.346V50.928c-.346.295-.583.48-.8.685q-5.386,5.07-10.769,10.144a5.285,5.285,0,0,1-1.313,1.141c-1.151.494-1.149,1.369-1.146,2.4.028,9.542.012,19.084.025,28.626a2.424,2.424,0,0,1-1,2.2,2.19,2.19,0,0,1-3.424-1.339,6.244,6.244,0,0,1-.092-1.3q-.007-14.795.005-29.589a2.325,2.325,0,0,0-.562-1.655,4.646,4.646,0,0,1,.08-5.815,1.883,1.883,0,0,0,.455-1.061q.038-11.249.017-22.5c0-.17-.025-.34-.047-.623h-2.357c-1.867,0-3.735.008-5.6,0-2.3-.012-3.5-1.209-3.529-3.517-.016-1.4-.006-2.8,0-4.2.006-2.549,1.022-3.623,3.552-3.765.113-.006.223-.03.433-.059,0-.5-.018-.987,0-1.475a1.838,1.838,0,0,1,2.034-2q7.791-.021,15.583,0a1.8,1.8,0,0,1,1.993,2.019c.011.462,0,.925,0,1.442.488.053.916.082,1.336.148a2.967,2.967,0,0,1,2.645,2.908c.046,1.837.052,3.677,0,5.514a3.067,3.067,0,0,1-3.329,2.983c-2.393.023-4.785.006-7.178.006h-.977V51.577c.3-.257.525-.426.727-.616q5.96-5.609,11.915-11.225c.867-.819,1.673-1.7,2.563-2.5a4.664,4.664,0,0,1,3.156-1.107c4.23-.026,8.464-.1,12.691.014a6.866,6.866,0,0,1,6.663,4.684c1.669,4.566,3.08,9.226,4.593,13.848,1.033,3.156,2.081,6.307,3.062,9.479a22.217,22.217,0,0,1,.392,2.474,1.111,1.111,0,0,0,.385.678,9.567,9.567,0,0,1,4.52,8.734c-.048,4.406-.026,8.812-.037,13.219,0,1.877-.37,2.358-2.2,2.57a61.992,61.992,0,0,1-14.661-.023,1.776,1.776,0,0,1-1.775-1.979c-.011-4.932-.054-9.864.018-14.794a8.921,8.921,0,0,1,4.219-7.546c.145-.1.294-.188.438-.289a1.531,1.531,0,0,0,.178-.2m10.7,8.194a5.906,5.906,0,0,0-2.99-5.333.952.952,0,0,0-.768.059,4.427,4.427,0,0,1-4.947-.035.845.845,0,0,0-.623-.121c-1.729.585-3.438,3.554-3.125,5.431Zm-60.524-46.046h21.442V23.9h-.964c0,.532.014,1.021,0,1.509a1.762,1.762,0,0,1-1.9,1.931q-7.872.041-15.747,0a1.816,1.816,0,0,1-1.956-1.989c-.023-.488,0-.977,0-1.511h-.865Z" transform="translate(-4484.373 2914.072)" fill="#009ef0" stroke="#009ef0" stroke-width="1"/>
  </g>
</svg>
