<svg xmlns="http://www.w3.org/2000/svg" xmlns:xlink="http://www.w3.org/1999/xlink" width="98.664" height="90.429" viewBox="0 0 98.664 90.429">
  <defs>
    <clipPath id="clip-path">
      <rect id="Rectangle_302" data-name="Rectangle 302" width="98.664" height="90.429" fill="#009ef0"/>
    </clipPath>
  </defs>
  <g id="Group_162" data-name="Group 162" transform="translate(-392 -2926.249)">
    <g id="Group_101" data-name="Group 101" transform="translate(392 2926.249)" clip-path="url(#clip-path)">
      <path id="Path_72" data-name="Path 72" d="M15.8,40.692c-.469,5.15-.471,9.666-1.386,13.989-.932,4.408.375,6.339,4.734,7.025,3.376.531,6.637,1.758,9.977,2.56,2.806.673,4.435,2.123,4.915,5.166,1.025,6.5,2.385,12.954,3.526,19.441.5,2.845-.133,5.373-3.415,5.884-3.12.486-3.72-2.084-4.26-4.355-1.1-4.6-1.913-9.274-3.278-13.787a5.679,5.679,0,0,0-3.454-3.278c-5.548-1.4-11.2-2.387-16.826-3.483-4.792-.934-6.666-3.3-6.289-8.073C.588,54.91,1.08,48.035,1.7,41.172a16.191,16.191,0,0,1,1.146-4.557C4.034,33.7,6.1,32,9.5,32.249c3.427.251,5.15,2.161,5.749,5.354.237,1.259.451,2.522.553,3.088" transform="translate(0 -4.386)" fill="#009ef0"/>
      <path id="Path_73" data-name="Path 73" d="M93.936,55.719c-.234-4.809-.638-9.971-.694-15.135-.059-5.545,1.99-8.287,5.831-8.444,4.027-.164,6.95,2.779,7.479,7.8.435,4.139.637,8.3.952,12.453.218,2.863.389,5.73.7,8.584.549,5.122-1.1,7.616-6.1,8.622-5.193,1.046-10.412,1.963-15.634,2.856-2.889.494-4.877,1.417-5.323,4.922a75.615,75.615,0,0,1-3.055,13.37c-.488,1.529-2.5,2.572-3.822,3.837-1.223-1.719-3.672-3.606-3.462-5.127a208.9,208.9,0,0,1,4.352-21.884c.332-1.339,2.477-2.631,4.051-3.176A106.2,106.2,0,0,1,90,61.547c2.98-.691,5.228-1.792,3.938-5.829" transform="translate(-9.636 -4.374)" fill="#009ef0"/>
      <path id="Path_74" data-name="Path 74" d="M59.6,84.418a5.818,5.818,0,0,1-.87,3.289c-.692,1.065-1.893,2.53-2.833,2.5-.955-.029-2.421-1.53-2.688-2.625a75.49,75.49,0,0,1-2.435-13.034c-.83-13.263-1.5-26.546-1.787-39.831-.144-6.623,2.6-9.66,7.265-9.65a6.729,6.729,0,0,1,4.468,1.457c1.994,1.7,2.218,4.49,2.3,5.755C64.209,51.04,59.692,79.752,59.6,84.418" transform="translate(-6.667 -3.412)" fill="#009ef0"/>
      <path id="Path_75" data-name="Path 75" d="M10.861,7.05a8.687,8.687,0,0,1,8.634,8.774,8.545,8.545,0,0,1-8.769,8.565A8.51,8.51,0,0,1,1.9,15.882a8.618,8.618,0,0,1,8.96-8.832" transform="translate(-0.259 -0.96)" fill="#009ef0"/>
      <path id="Path_76" data-name="Path 76" d="M101.456,24.39a8.151,8.151,0,0,1-8.635-8.552,8.4,8.4,0,0,1,8.493-8.773c5.052-.051,8.54,3.443,8.612,8.624s-3.317,8.653-8.469,8.7" transform="translate(-12.635 -0.962)" fill="#009ef0"/>
      <path id="Path_77" data-name="Path 77" d="M57.734,0c4.869.079,8.355,3.873,8.26,8.989-.094,4.991-3.756,8.387-8.931,8.279-4.958-.1-8.243-3.476-8.229-8.447A8.463,8.463,0,0,1,57.734,0" transform="translate(-6.647 0)" fill="#009ef0"/>
    </g>
  </g>
</svg>
