<svg xmlns="http://www.w3.org/2000/svg" width="93.241" height="93.3" viewBox="0 0 93.241 93.3">
  <g id="Group_90" data-name="Group 90" transform="translate(0.5 0.607)">
    <path id="Path_13" data-name="Path 13" d="M373.532,128.845h.333q16.084,0,32.167,0a1.851,1.851,0,0,1,1.907,2.26c-.4,2.636-.829,5.267-1.244,7.9q-.68,4.322-1.351,8.646-.608,3.879-1.228,7.755a.5.5,0,0,1-.24.286,58.06,58.06,0,0,0-5.994,3.958,36.618,36.618,0,0,0-7.964,8.016,21.673,21.673,0,0,0-3.826,9.044,16.388,16.388,0,0,0,.948,9.246,13.764,13.764,0,0,0,4.013,5.318l.264.219c-.129.011-.208.024-.287.024q-15.431,0-30.861,0a1.982,1.982,0,0,1-2.034-1.791c-.389-2.54-.8-5.078-1.192-7.616s-.789-5.1-1.187-7.646c-.376-2.405-.759-4.81-1.135-7.215q-.6-3.823-1.187-7.646-.563-3.608-1.134-7.215-.51-3.264-1.014-6.529-.5-3.222-1.01-6.442c-.341-2.186-.685-4.371-1.019-6.558a18.243,18.243,0,0,1-.277-2.21c-.033-1.176.551-1.775,1.818-1.791,2.69-.034,5.38-.009,8.071-.014a.451.451,0,0,1,.391.183q4.074,4.969,8.157,9.931,1.767,2.151,3.533,4.306a.633.633,0,0,1,.133.359,7.352,7.352,0,0,0,6.017,7.2,7.042,7.042,0,0,0,6.819-2.31,7.222,7.222,0,0,0-2.243-11.426,18.08,18.08,0,0,0-1.875-.658.917.917,0,0,1-.4-.246q-2.878-3.567-5.74-7.147c-.036-.045-.065-.095-.132-.194" transform="translate(-348.98 -99.355)" fill="#009ef0" stroke="#009ef0" stroke-width="1"/>
    <path id="Path_14" data-name="Path 14" d="M524.1,273.2c-.664-.031-1.329-.041-1.991-.1a17.42,17.42,0,0,1-5.287-1.216,11.576,11.576,0,0,1-5.413-4.3,10.447,10.447,0,0,1-1.727-5.275,16.716,16.716,0,0,1,2.791-9.932,29.2,29.2,0,0,1,6.13-6.807,54.919,54.919,0,0,1,11.707-7.34,1.413,1.413,0,0,1,1.2-.038q5.23,1.922,10.47,3.818c.216.079.433.154.653.232-.153.894-.318,1.785-.456,2.681a41.209,41.209,0,0,0-.545,8.207,13.7,13.7,0,0,0,.5,3.229,11.8,11.8,0,0,0,2.1,3.778,22.272,22.272,0,0,0,6.215,5.426,33.589,33.589,0,0,0,9.017,3.865,2.26,2.26,0,0,1,1.38.772,1.487,1.487,0,0,1,.263,1.646A1.879,1.879,0,0,1,559.59,273a3.748,3.748,0,0,1-.406.013c-2.187,0-4.375-.032-6.561.011a24.837,24.837,0,0,1-4.9-.441,31.944,31.944,0,0,1-5.943-1.614,17.436,17.436,0,0,1-5.876-3.58,8.591,8.591,0,0,1-2.6-4.432,7.359,7.359,0,0,1,.11-3.472,1.87,1.87,0,0,0-1.366-2.324,1.962,1.962,0,0,0-2.151,1.418,11.516,11.516,0,0,0,.55,7.544,12.931,12.931,0,0,0,4.119,5.222c.827.648,1.715,1.218,2.568,1.818a.527.527,0,0,1-.127.023c-1.326,0-2.652.018-3.977-.01a3.7,3.7,0,0,1-1.006-.243,19.958,19.958,0,0,1-5.668-2.659,8.652,8.652,0,0,1-3.626-5.14,9.791,9.791,0,0,1,.223-5.014,17.057,17.057,0,0,1,4.157-7.143,1.805,1.805,0,0,0,.521-1.88,1.787,1.787,0,0,0-1.461-1.3,1.749,1.749,0,0,0-1.688.622A23.054,23.054,0,0,0,520.772,256a18.419,18.419,0,0,0-1.635,5.113,12.735,12.735,0,0,0,.663,6.61,11.7,11.7,0,0,0,3.824,5c.165.132.333.261.5.391Z" transform="translate(-469.111 -181.023)" fill="#009ef0" stroke="#009ef0" stroke-width="1"/>
    <path id="Path_15" data-name="Path 15" d="M613.2,69.728l-10.872-3.912c.117-.317.227-.621.342-.923q4.226-11.059,8.453-22.117,4.837-12.669,9.667-25.34c.341-.892.67-1.789,1.017-2.678a4.41,4.41,0,0,1,5.359-2.553,4.556,4.556,0,0,1,3.214,2.835,3.653,3.653,0,0,1,.064,2.472q-2.763,8.354-5.518,16.711-3.866,11.709-7.732,23.418-1.964,5.951-3.922,11.9c-.018.055-.042.107-.071.183" transform="translate(-538.389 -12.018)" fill="#009ef0" stroke="#009ef0" stroke-width="1"/>
    <path id="Path_16" data-name="Path 16" d="M363.9,67.375a11.921,11.921,0,0,0-2.018,4.644H358.25a14.144,14.144,0,0,1,3.342-7.477c-.424-.518-.85-1.04-1.279-1.561-1.228-1.494-2.451-2.992-3.687-4.479a1.937,1.937,0,0,1,1.222-3.14,1.572,1.572,0,0,1,1.624.6q2.851,3.458,5.7,6.92l6.911,8.4q4.69,5.7,9.379,11.4c.59.717,1.179,1.434,1.78,2.141a.45.45,0,0,0,.334.145,3.676,3.676,0,1,1-3.373,4.271,3.377,3.377,0,0,1,.11-1.662.349.349,0,0,0-.068-.389q-3.106-3.755-6.2-7.519l-9.185-11.149c-.312-.379-.628-.754-.952-1.142" transform="translate(-354.354 -44.392)" fill="#009ef0" stroke="#009ef0" stroke-width="1"/>
    <path id="Path_17" data-name="Path 17" d="M429.682,56.651c-.165-.644-.288-1.29-.5-1.907-1.724-5.134-5.221-8.309-10.585-9.166a12.654,12.654,0,0,0-13.18,6.685.853.853,0,0,1-.872.547,10.244,10.244,0,0,0-1.591.258.381.381,0,0,1-.3-.066c-.808-.9-1.6-1.809-2.4-2.717a.45.45,0,0,1-.044-.095,5.943,5.943,0,0,1,2.389-.5.565.565,0,0,0,.53-.293,16.279,16.279,0,0,1,10.629-7.164A16.556,16.556,0,0,1,432.507,52.71a.36.36,0,0,0,.34.284,10.528,10.528,0,0,1,6.8,3.387,11.38,11.38,0,0,1,2.883,5.56c.014.065.018.133.031.234h-.325c-1.055,0-2.11-.01-3.164.007a.405.405,0,0,1-.468-.326,7.441,7.441,0,0,0-5.353-5,7.841,7.841,0,0,0-1.576-.2c-.656-.034-1.314-.008-1.989-.008" transform="translate(-387.283 -34.362)" fill="#009ef0" stroke="#009ef0" stroke-width="1"/>
  </g>
</svg>
