<svg xmlns="http://www.w3.org/2000/svg" width="86.069" height="93.171" viewBox="0 0 86.069 93.171">
  <path id="Path_12" data-name="Path 12" d="M24.236,51.03c2.44,0,2.4,0,2.408-2.476.005-.936-.351-1.1-1.176-1.085-2.264.045-4.53.015-6.794.015H13.01c-2.34,0-2.294,0-2.347,2.287-.02.964.217,1.3,1.242,1.282,4.108-.058,8.22-.025,12.331-.023m1.123,3.513c-4.068.048-8.137.02-12.2.02-2.6,0-2.572,0-2.486,2.647.023.737.285.914.967.906,2.347-.033,4.7-.013,7.044-.013h5.661c2.3,0,2.246,0,2.3-2.33.028-1.037-.336-1.244-1.287-1.231m.005-14.158c-4.068.05-8.139.023-12.21.023-2.6,0-2.574,0-2.491,2.642.023.732.275.926.964.919,2.347-.033,4.7-.013,7.049-.013h5.663c2.312,0,2.256,0,2.312-2.329.023-1.025-.326-1.252-1.287-1.242M13.063,61.64c-2.433,0-2.4,0-2.393,2.486,0,.82.232,1.088,1.062,1.068,2.3-.048,4.611-.015,6.915-.015h5.535c2.474,0,2.435,0,2.456-2.425.008-.873-.237-1.141-1.126-1.131-4.149.043-8.3.02-12.45.018M70.842,76.808c.076-.091.151-.179.225-.27l.005-.01a.473.473,0,0,0,.225-.5.236.236,0,0,0,.035-.2.549.549,0,0,0,.212-.81.826.826,0,0,0,.025-.235,1.518,1.518,0,0,0,0-1.817.761.761,0,0,0-.033-.237c.152-.886-.414-1.5-.84-2.158-1.158-1.774-2.345-3.528-3.586-5.388.555,0,.969,0,1.383,0,2.847-.013,4.131-1.3,4.134-4.159q.012-8.3.008-16.609a3.038,3.038,0,0,0-.545-2.256,3.176,3.176,0,0,0-3.1-1.736l-31.62,0a3.387,3.387,0,0,0-3.309,2.062c-.045.167-.091.333-.136.5l-.045.1a1.677,1.677,0,0,0-.151.472c-.01,6.13-.048,12.26.007,18.39a3.422,3.422,0,0,0,3.415,3.233c.6.03,1.209,0,2.052,0-.82,1.25-1.517,2.236-2.133,3.271-.636,1.07-1.577,1.956-1.918,3.2l.018.033c-.447.217-.449.626-.454,1.035a4.624,4.624,0,0,0,1.148,4.767c2.325,2.552,3.713,5.318,3.2,8.926a3.08,3.08,0,0,0,2.564,3.415c.858.192.937.6.929,1.3-.023,2.435-.012,4.871-.005,7.306.013,3.556,2.175,5.739,5.719,5.757,3.193.015,6.385.008,9.578,0,3.808-.005,5.948-2.11,5.984-5.906.02-2.352.028-4.7-.01-7.056a1.189,1.189,0,0,1,1.02-1.411,3,3,0,0,0,2.428-3.137,10.124,10.124,0,0,1,2.789-8.682,1.106,1.106,0,0,0,.51-.694l.008-.013a.543.543,0,0,0,.29-.482l-.015.005M37.236,58.3q.007-7.162.022-14.325l1.492-.088c4.606.02,9.214.061,13.822.061,4.649,0,9.3-.038,13.946-.061l2.534.076c.01,5.55.005,11.1.05,16.646.008.853-.29,1.04-1.085,1.048-3.185.03-3.187.058-4.987-2.6-.209-.31-.379-.649-.568-.972a74.7,74.7,0,0,1-4.618-6.822,5.407,5.407,0,0,0-9.343-.028c-1.431,2.352-3.082,4.568-4.631,6.844-.649,1.02-1.322,2.024-1.933,3.066-.328.56-.81.49-1.308.494-3.4.046-3.4.046-3.394-3.339M54.082,71.98l-.03.013a.28.28,0,0,0-.1.066.142.142,0,0,0-.028.028.427.427,0,0,0-.061.1c-.49,0-.977,0-1.466,0l.01.018c-.091-.068-.187-.141-.278-.212l-.023-.013a.775.775,0,0,0-.182-.22.286.286,0,0,0-.058-.038.158.158,0,0,0-.048-.023.269.269,0,0,0-.068-.02.339.339,0,0,0-.073-.01.721.721,0,0,0-.273-.568.093.093,0,0,0-.017-.141c.078-1.5.78-2.319,1.916-2.234,1.166.086,1.726,1.063,1.5,2.622l.058.066c-.177.015-.232.136-.252.288l-.232.232s0-.005,0-.008a1.06,1.06,0,0,0-.3.05m6.143,26.6c-.013,1.315-.626,1.966-1.918,1.976-3.445.028-6.89.015-10.337,0a1.677,1.677,0,0,1-1.863-1.777c-.053-2.647,0-5.295-.033-7.942-.008-.7.331-.838.929-.833,2.059.018,4.119,0,6.178,0,2.017,0,4.033.025,6.049-.012.765-.013,1.025.252,1.015,1.02-.038,2.519,0,5.04-.02,7.561M61.355,86.4c-5.842,0-11.682-.028-17.525.025-1.07.01-1.34-.308-1.31-1.34.068-2.218.013-2.218,2.173-2.218h8.573c3.152,0,6.3.025,9.454-.015.828-.013,1.07.247,1.07,1.075,0,2.476.038,2.473-2.435,2.473m6.6-11.216v0a.676.676,0,0,0-.459.553l0,0a1.991,1.991,0,0,0-.76,1.007l0,0a.506.506,0,0,0-.3.485l.028-.008c-.1.086-.2.174-.3.262-.936,1.8-2.526,1.888-4.331,1.865-6.423-.081-12.846-.048-19.271-.008a1.683,1.683,0,0,1-1.54-.815c-.883-1.221-1.83-2.4-2.751-3.589-.076-.078-.157-.156-.232-.235a5.165,5.165,0,0,1,.23-1.961l-.008,0,.257-.257.008,0c2.658-3.657,5.025-7.511,7.543-11.261,1.676-2.5,3.362-4.99,5.053-7.5.457.222.245.6.247.881.02,3.233-.013,6.468.033,9.7a1.624,1.624,0,0,1-.936,1.666,5.112,5.112,0,0,0-1.148,8.068,5.051,5.051,0,0,0,7.63.048c.081-.109.159-.22.242-.328.081-.091.162-.179.247-.27a1.434,1.434,0,0,0,.538-.994l.008.01A5.042,5.042,0,0,0,55.886,66a1.708,1.708,0,0,1-.977-1.784c.036-3.47.015-6.943.015-10.731.487.659.81,1.063,1.1,1.492,3.9,5.827,7.778,11.667,11.7,17.48a2.325,2.325,0,0,1,.215,2.69h0Zm17.1-57.97a4.463,4.463,0,0,0-1.86-3.8v0h0c-.091-.081-.179-.156-.27-.235a4.794,4.794,0,0,0-3.6-1.166q-36.8,0-73.59.005C2.171,12.028.021,14.219.008,17.8c-.017,4.957,0,9.913.005,14.87,0,.331.063.661.1.992Q.087,44.626.069,55.591c0,4.79.035,9.578.053,14.368C.1,74.665.22,79.377.028,84.079A5.612,5.612,0,0,0,5.987,90c9.121-.144,18.247-.051,27.37-.051,2.12,0,2.041,0,2.142-2.137.056-1.209-.368-1.441-1.484-1.436-9.249.043-18.5.025-27.749.025-2.256,0-2.829-.646-2.663-2.88.043-.611.24-.762.843-.724,1.257.075,2.518.068,3.78.068q12.988.008,25.982-.01c.414,0,1.1.273,1.189-.333a6.062,6.062,0,0,0-.048-2.738c-.257-.74-1.249-.449-1.936-.449q-14.253-.027-28.506-.025c-.114-.025-.227-.048-.343-.071l-.061-.106a2.925,2.925,0,0,1-.833-2.385Q3.71,54.222,3.7,31.688c0-.54-.063-1.083-.1-1.623.356-.452.858-.26,1.292-.26q37.648-.015,75.3,0c.434,0,.936-.192,1.292.257-.033.543-.093,1.083-.093,1.625q0,22.532.025,45.064a2.946,2.946,0,0,1-.833,2.387c-.076.141-.106.336-.333.308a66.965,66.965,0,0,0-6.9-.111c-2.544-.038-2.5-.008-2.521,2.5-.008.919.323,1.136,1.168,1.108,2.892-.1,5.792.119,8.687-.124.27-.023.56-.156.752.225a2.328,2.328,0,0,1-2,3.357c-2.016.023-4.033.005-6.049.005-2.69,0-2.69,0-2.539,2.713a.754.754,0,0,1,0,.126c-.051.53.187.78.719.772,2.981-.033,5.971.076,8.937-.136a4.834,4.834,0,0,0,4.48-4.8c.058-4.871-.005-9.739-.015-14.61.018-5.252.05-10.5.053-15.756,0-4.328-.031-8.654-.048-12.982a.856.856,0,0,0,.073-.237c.013-8.091.045-16.182.01-24.273M27.535,26.2c-7.483,0-14.963-.033-22.443.028-1.26.013-1.555-.381-1.507-1.567.093-2.307.015-4.621.038-6.933.015-1.507.573-2.077,2.052-2.082,5.717-.013,11.433,0,17.149,0,.459,0,.906-.053,1.174.492,1.618,3.268,3.258,6.526,5.03,10.065Zm6.092,0c-.575,0-.8-.351-1.012-.782q-2.4-4.857-4.805-9.7l.424-.184a47.881,47.881,0,0,0,7.586-.023l.255.076a1.9,1.9,0,0,1,.343.172,1.889,1.889,0,0,0-.343-.169c1.751,3.47,3.5,6.94,5.353,10.607-2.774,0-5.287-.008-7.8.008m47.855-1.716c-.033,1.736-.008,1.754-1.8,1.754q-10.721.011-21.437.005c-3.866,0-7.735-.033-11.6.025a1.7,1.7,0,0,1-1.8-1.151c-1.35-2.847-2.784-5.653-4.2-8.467-.318-.631-.515-1.025.53-1.022q19.61.053,39.216.053a1.327,1.327,0,0,1,1.05,1.06c.038.151.078.3.116.452.01.209.02.416.028.623-.245,2.218-.056,4.444-.1,6.668" transform="translate(0.5 -11.521)" fill="#009ef0" stroke="#009ef0" stroke-width="1"/>
</svg>
