<svg xmlns="http://www.w3.org/2000/svg" width="87.645" height="87.645" viewBox="0 0 87.645 87.645">
  <path id="Path_50" data-name="Path 50" d="M3162.982,63.357l-1.65-.55a3.084,3.084,0,0,1,.988-1.711,5.457,5.457,0,0,0,0-8.03,2.718,2.718,0,0,1,0-4.266,5.448,5.448,0,0,0,0-8.026,2.783,2.783,0,0,1-1.032-2.131V28.86a20.962,20.962,0,0,0-41.925,0v9.782a2.783,2.783,0,0,1-1.032,2.131,9.525,9.525,0,0,0-.872,1.064,6.962,6.962,0,0,0-1.992-.38,15.371,15.371,0,1,0-25.743.009,6.981,6.981,0,0,0-6.7,6.958v39.13a7,7,0,0,0,6.988,6.987h25.156a7,7,0,0,0,6.846-5.59h47.656V72.636a9.768,9.768,0,0,0-6.689-9.278m-2.729-20.7a2.716,2.716,0,0,1,0,4.262,5.455,5.455,0,0,0,0,8.029,2.72,2.72,0,0,1,0,4.27,6.048,6.048,0,0,0-1.6,2.7l-9.94-3.314V55.7a15.389,15.389,0,0,0,6.738-10.189,6.99,6.99,0,0,0,4.67-3.011c.044.051.092.1.137.154m-19.93,12.758a12.591,12.591,0,0,1-12.577-12.578v-9.61a5.974,5.974,0,0,1,3.815-5.576,29.819,29.819,0,0,0,20.62,8.2h.72v6.987a12.591,12.591,0,0,1-12.578,12.578m0,2.8a15.27,15.27,0,0,0,5.59-1.068v1.793l-5.59,4.474-5.59-4.474V57.14a15.267,15.267,0,0,0,5.59,1.068m-7.267,2.964,5.057,4.046-5.359,4.466-1.942-7.765Zm5.737,13.806h3.061l1.118,11.18h-5.3Zm3.534-2.795h-4.007l-1.4-2.332,3.4-2.836,3.4,2.836Zm.206-6.965,5.057-4.046,2.243.747-1.943,7.765Zm13.163-30.51a4.168,4.168,0,0,1,0,7.871Zm-15.373-24.015A18.189,18.189,0,0,1,3158.49,28.86v4.229a6.918,6.918,0,0,0-2.8-1.291V27.463H3152.9v5.59h-.72a27.044,27.044,0,0,1-19.254-7.976l-.559-.559-.768.193a8.76,8.76,0,0,0-6.527,7.074,6.912,6.912,0,0,0-2.916,1.3V28.86a18.188,18.188,0,0,1,18.167-18.167m-18.167,27.95a4.186,4.186,0,0,1,2.794-3.935v7.869a4.183,4.183,0,0,1-2.794-3.934m-1.763,4.012.14-.156a7.03,7.03,0,0,0,4.664,3.011,15.385,15.385,0,0,0,6.739,10.193v2.9L3122,61.912a6.052,6.052,0,0,0-1.6-2.7,2.723,2.723,0,0,1,0-4.271,5.453,5.453,0,0,0,0-8.028,2.716,2.716,0,0,1,0-4.263m-17.8-22.18a12.562,12.562,0,0,1,9.356,20.962h-7.958V39.783a4.182,4.182,0,0,0-1.4-8.128,1.4,1.4,0,1,1,1.4-1.4h2.795a4.187,4.187,0,0,0-2.795-3.935V23.27h-2.795v3.052a4.182,4.182,0,0,0,1.4,8.128,1.4,1.4,0,1,1-1.4,1.4H3098.4a4.187,4.187,0,0,0,2.795,3.935v1.655h-7.958a12.562,12.562,0,0,1,9.356-20.962m16.77,65.682v1.4a4.2,4.2,0,0,1-4.192,4.192h-25.156a4.2,4.2,0,0,1-4.192-4.192V48.425a4.2,4.2,0,0,1,4.192-4.193h25.156a4.177,4.177,0,0,1,1.415.256c0,.1-.018.192-.018.3a5.507,5.507,0,0,0,1.763,4.012,2.718,2.718,0,0,1,0,4.266,5.459,5.459,0,0,0,0,8.03,3.094,3.094,0,0,1,.989,1.711l-1.65.551a9.745,9.745,0,0,0-1.1.465V61h-27.95V86.158a2.8,2.8,0,0,0,2.8,2.795h25.155V86.158h-2.8V72.636a6.978,6.978,0,0,1,4.778-6.629l9.6-3.2,2.968,11.876,3.625-3.02,1.345,2.242-1.225,12.255h-9.916v-.579l-1.228-1.228a5.352,5.352,0,0,1,0-7.566l1.228-1.228V72.183h-2.794V74.4l-.41.41a8.129,8.129,0,0,0-.152,11.349Zm-8.385,0h-2.795v-5.59h2.795ZM3099.8,63.8h5.59v5.59h-5.59Zm5.59,13.975h-5.59v-5.59h5.59ZM3097,69.388h-5.59V63.8H3097Zm-5.59,2.8H3097v5.59h-5.59Zm0,8.385H3097v5.59h-5.59Zm8.385,0h5.59v5.59h-5.59Zm11.18-7.932v5.137h-2.795v-5.59h2.831c-.007.152-.036.3-.036.453m.569-3.248h-3.364V63.8h5.59v1.991a9.748,9.748,0,0,0-2.226,3.6m55.33,16.77h-7.823a8.129,8.129,0,0,0-.152-11.349l-.409-.41V72.183h-2.8v3.373l1.229,1.228a5.351,5.351,0,0,1,0,7.566l-1.229,1.228v.579h-9.916L3144.555,73.9l1.345-2.242,3.625,3.02,2.969-11.876,9.6,3.2a6.983,6.983,0,0,1,4.778,6.63Z" transform="translate(-3082.526 -7.398)" fill="#009ef0" stroke="#009ef0" stroke-width="1"/>
</svg>
